<svg width="22" height="24" viewBox="0 0 22 24" fill="none" xmlns="http://www.w3.org/2000/svg">
<g clip-path="url(#clip0_1595_11049)">
<mask id="mask0_1595_11049" style="mask-type:luminance" maskUnits="userSpaceOnUse" x="0" y="0" width="22" height="24">
<path d="M21.4161 0H0V23.9439H21.4161V0Z" fill="white"/>
</mask>
<g mask="url(#mask0_1595_11049)">
<path d="M10.7081 1.03232C10.9532 1.03226 11.194 1.09666 11.4063 1.21905L19.6842 5.99171C19.8965 6.11411 20.0727 6.29014 20.1952 6.50213C20.3178 6.71411 20.3823 6.95458 20.3823 7.19935V16.7447C20.3823 16.9894 20.3178 17.2298 20.1952 17.4419C20.0727 17.6538 19.8965 17.8298 19.6842 17.9522L11.4063 22.7249C11.1939 22.8472 10.9532 22.9117 10.708 22.9117C10.4629 22.9117 10.2221 22.8472 10.0098 22.7249L1.73191 17.9522C1.51964 17.8298 1.34337 17.6538 1.22082 17.4419C1.09827 17.2298 1.03375 16.9894 1.03376 16.7447V7.19935C1.03376 6.95458 1.09827 6.71411 1.22082 6.50213C1.34338 6.29014 1.51964 6.11411 1.73191 5.99171L10.0098 1.21905C10.2221 1.09667 10.463 1.03227 10.7081 1.03232ZM10.7081 0C10.2816 0.000166348 9.86255 0.112289 9.49307 0.32513L1.21503 5.09779C0.846075 5.3113 0.539678 5.61774 0.326462 5.98653C0.113248 6.35532 0.000677463 6.77352 0 7.19935V16.7447C0.000699263 17.1705 0.113292 17.5888 0.326525 17.9575C0.539759 18.3263 0.846169 18.6327 1.21514 18.8462L9.49307 23.6189C9.8625 23.8319 10.2815 23.9439 10.7081 23.9439C11.1347 23.9439 11.5537 23.8319 11.9231 23.6189L20.2011 18.8462C20.5701 18.6328 20.8766 18.3263 21.0899 17.9576C21.3032 17.5888 21.4158 17.1705 21.4165 16.7447V7.19935C21.4159 6.77352 21.3033 6.35532 21.0901 5.98654C20.8768 5.61775 20.5704 5.3113 20.2015 5.09779L11.9236 0.32513C11.5541 0.112303 11.1351 0.000181486 10.7085 0H10.7081Z" fill="#C04864"/>
</g>
<mask id="mask1_1595_11049" style="mask-type:luminance" maskUnits="userSpaceOnUse" x="0" y="0" width="22" height="24">
<path d="M21.4161 0H0V23.9439H21.4161V0Z" fill="white"/>
</mask>
<g mask="url(#mask1_1595_11049)">
<path d="M10.7081 1.03232C10.9532 1.03226 11.194 1.09666 11.4063 1.21905L19.6842 5.99171C19.8965 6.11411 20.0727 6.29014 20.1952 6.50213C20.3178 6.71411 20.3823 6.95458 20.3823 7.19935V16.7447C20.3823 16.9894 20.3178 17.2298 20.1952 17.4419C20.0727 17.6538 19.8965 17.8298 19.6842 17.9522L11.4063 22.7249C11.1939 22.8472 10.9532 22.9117 10.708 22.9117C10.4629 22.9117 10.2221 22.8472 10.0098 22.7249L1.73191 17.9522C1.51964 17.8298 1.34337 17.6538 1.22082 17.4419C1.09827 17.2298 1.03375 16.9894 1.03376 16.7447V7.19935C1.03376 6.95458 1.09827 6.71411 1.22082 6.50213C1.34338 6.29014 1.51964 6.11411 1.73191 5.99171L10.0098 1.21905C10.2221 1.09667 10.463 1.03227 10.7081 1.03232ZM10.7081 0C10.2816 0.000166348 9.86255 0.112289 9.49307 0.32513L1.21503 5.09779C0.846075 5.3113 0.539678 5.61774 0.326462 5.98653C0.113248 6.35532 0.000677463 6.77352 0 7.19935V16.7447C0.000699263 17.1705 0.113292 17.5888 0.326525 17.9575C0.539759 18.3263 0.846169 18.6327 1.21514 18.8462L9.49307 23.6189C9.8625 23.8319 10.2815 23.9439 10.7081 23.9439C11.1347 23.9439 11.5537 23.8319 11.9231 23.6189L20.2011 18.8462C20.5701 18.6328 20.8766 18.3263 21.0899 17.9576C21.3032 17.5888 21.4158 17.1705 21.4165 16.7447V7.19935C21.4159 6.77352 21.3033 6.35532 21.0901 5.98654C20.8768 5.61775 20.5704 5.3113 20.2015 5.09779L11.9236 0.32513C11.5541 0.112303 11.1351 0.000181486 10.7085 0H10.7081Z" fill="#C04864"/>
</g>
<path d="M16 14.8611C16 15.0933 15.8717 15.295 15.6761 15.3989L10.8483 18.1122C10.7506 18.1856 10.6283 18.2222 10.5 18.2222C10.3717 18.2222 10.2494 18.1856 10.1517 18.1122L5.32389 15.3989C5.12833 15.295 5 15.0933 5 14.8611V9.36111C5 9.12889 5.12833 8.92722 5.32389 8.82333L10.1517 6.11C10.2494 6.03667 10.3717 6 10.5 6C10.6283 6 10.7506 6.03667 10.8483 6.11L15.6761 8.82333C15.8717 8.92722 16 9.12889 16 9.36111V14.8611ZM10.5 6.5L6 9L10.5 11.4083L15 9L10.5 6.5ZM5.74217 14.8611L10.1517 17.222L10 12L5.5 9.5L5.74217 14.8611ZM15.5 14.5V9.5L10.5 12L10.8483 17.3476L15.5 14.5Z" fill="#C04864"/>
<path d="M13 13.35C13 13.464 12.9417 13.563 12.8528 13.614L10.6583 14.946C10.6139 14.982 10.5583 15 10.5 15C10.4417 15 10.3861 14.982 10.3417 14.946L8.14722 13.614C8.05833 13.563 8 13.464 8 13.35V10.65C8 10.536 8.05833 10.437 8.14722 10.386L10.3417 9.054C10.3861 9.018 10.4417 9 10.5 9C10.5583 9 10.6139 9.018 10.6583 9.054L12.8528 10.386C12.9417 10.437 13 10.536 13 10.65V13.35ZM10.5 9.24545L8.45455 10.4727L10.5 11.655L12.5455 10.4727L10.5 9.24545ZM8.33735 13.35L10.3417 14.509L10.2727 11.9455L8.22727 10.7182L8.33735 13.35ZM12.7727 13.1727V10.7182L10.5 11.9455L10.6583 14.5707L12.7727 13.1727Z" fill="#C04864"/>
<path d="M8.21063 13.316C8.25423 13.3953 8.25805 13.477 8.219 13.4984L7.36697 13.9668C7.33506 13.9844 7.33111 14.0436 7.35721 14.1106L7.7318 15.0726C7.76767 15.1698 7.761 15.247 7.71751 15.2709L7.71631 15.2716C7.67176 15.2947 7.60197 15.2568 7.54273 15.1773L6.26692 13.4041L6.93019 15.1422C6.96386 15.2354 6.95855 15.3092 6.91871 15.3354C6.8781 15.3639 6.81481 15.3336 6.75565 15.2638L6.2893 14.6831C6.24793 14.6318 6.20015 14.6081 6.17042 14.6244L5.33004 15.0866C5.29099 15.108 5.22404 15.061 5.18044 14.9817C5.13684 14.9024 5.13302 14.8207 5.17207 14.7992L6.01252 14.337C6.10178 14.288 6.24496 14.3587 6.3691 14.5131L6.64275 14.854L5.95726 13.0577C5.92209 12.9601 5.92748 12.882 5.97438 12.8612C6.01889 12.8388 6.08832 12.8768 6.14717 12.9556L7.41718 14.7207L7.17972 14.1111C7.1012 13.9096 7.11311 13.732 7.20879 13.6794L8.06081 13.211C8.09986 13.1896 8.16703 13.2366 8.21063 13.316Z" fill="#C04864"/>
<path d="M10.4545 9.2144C10.3999 9.21377 10.356 9.18063 10.3564 9.14027L10.3666 8.25953C10.367 8.22653 10.3371 8.19721 10.2942 8.18817L9.6784 8.05865C9.61676 8.044 9.57834 8.00457 9.57886 7.95961L9.57888 7.95837C9.58009 7.9129 9.62088 7.87453 9.68026 7.86288L10.9908 7.63897L9.88216 7.39419C9.82329 7.37957 9.78623 7.34271 9.78446 7.29962C9.78171 7.25491 9.81655 7.2183 9.87083 7.20243L10.3146 7.09073C10.3539 7.08075 10.3806 7.05346 10.3809 7.02273L10.3908 6.15394C10.3913 6.11358 10.436 6.08146 10.4906 6.08209C10.5451 6.08272 10.5891 6.11586 10.5886 6.15622L10.5787 7.02508C10.5776 7.11735 10.4977 7.19921 10.3796 7.22902L10.1192 7.2945L11.2649 7.54744C11.3266 7.56282 11.3659 7.60168 11.3627 7.64792C11.3611 7.69302 11.3204 7.7311 11.2615 7.74276L9.95687 7.96564L10.3472 8.04767C10.4762 8.07478 10.5656 8.16276 10.5644 8.26166L10.5543 9.1424C10.5538 9.18277 10.5091 9.21503 10.4545 9.2144Z" fill="#C04864"/>
<path d="M12.7665 13.3747C12.7751 13.3449 12.8182 13.3312 12.8628 13.3442L13.8372 13.6264C13.8736 13.637 13.9105 13.6299 13.9267 13.6091L14.1596 13.3119C14.1848 13.2827 14.2341 13.274 14.2838 13.2884L14.2852 13.2888C14.3354 13.3037 14.372 13.3382 14.3762 13.3744L14.434 14.164L14.8662 13.6325C14.8909 13.6048 14.9372 13.596 14.9852 13.6086C15.0351 13.6211 15.0706 13.6517 15.0803 13.6865L15.1396 13.9651C15.145 13.9898 15.1713 14.013 15.2053 14.0229L15.9262 14.331C15.9709 14.344 16 14.3786 15.9914 14.4083C15.9828 14.4381 15.9397 14.4518 15.895 14.4389L15.174 14.1307C15.0719 14.1011 14.9928 14.0315 14.977 13.9574L14.9422 13.7939L14.4956 14.3432C14.4697 14.3722 14.4209 14.3815 14.3701 14.3653C14.3204 14.3502 14.2841 14.3159 14.2798 14.2799L14.2222 13.4939L14.0747 13.6823C14.0259 13.7446 13.9155 13.7661 13.8061 13.7344L12.8318 13.4521C12.7871 13.4391 12.7579 13.4044 12.7665 13.3747Z" fill="#C04864"/>
<rect width="1.35495" height="1.13893" rx="0.569467" transform="matrix(0.938355 0.345672 -0.316565 0.948571 13.46 12.73)" fill="#F5F5F5"/>
<path d="M14.0143 13.815L14.0143 13.8149L14.2322 13.8844C14.244 13.8882 14.2563 13.8867 14.2665 13.8813C14.2766 13.8759 14.2848 13.8665 14.2884 13.8545C14.2958 13.8304 14.2825 13.8047 14.2587 13.7972L14.0408 13.7277C13.9969 13.7137 13.9608 13.6832 13.9393 13.6417C13.9178 13.6002 13.9135 13.5529 13.9271 13.5083L13.9943 13.2872C14.0016 13.2631 13.9883 13.2375 13.9646 13.2299C13.9408 13.2224 13.9157 13.2357 13.9083 13.2598L13.8411 13.481C13.814 13.5701 13.7137 13.6234 13.6258 13.5954C13.6258 13.5954 13.6258 13.5954 13.6258 13.5954L13.6257 13.5954L13.4078 13.526C13.3841 13.5184 13.3589 13.5317 13.3516 13.5559C13.3443 13.58 13.3575 13.6056 13.3813 13.6131L13.5992 13.6827C13.6432 13.6967 13.6793 13.7272 13.7007 13.7686C13.7222 13.81 13.7266 13.8574 13.713 13.9021L13.713 13.9021L13.6458 14.1231C13.6384 14.1472 13.6517 14.1729 13.6755 14.1804C13.6993 14.188 13.7244 14.1746 13.7317 14.1505L13.799 13.9294C13.8126 13.8849 13.8424 13.8484 13.8831 13.8268C13.9232 13.8055 13.9709 13.8011 14.0142 13.8149C14.0142 13.8149 14.0142 13.8149 14.0143 13.815ZM13.841 13.7457C13.8261 13.7536 13.8122 13.7629 13.7993 13.7734C13.7944 13.7573 13.7881 13.7415 13.7802 13.7263C13.7724 13.7111 13.7631 13.6969 13.7528 13.6837C13.7686 13.6789 13.7841 13.6726 13.799 13.6646C13.814 13.6567 13.8279 13.6474 13.8408 13.637C13.8456 13.6531 13.8519 13.6688 13.8598 13.684C13.8677 13.6993 13.8769 13.7134 13.8872 13.7266C13.8714 13.7314 13.8559 13.7378 13.841 13.7457ZM13.7325 13.3253C13.7087 13.2238 13.7555 13.1192 13.8463 13.0709C13.9559 13.0126 14.0923 13.0561 14.1502 13.1678C14.1982 13.2603 14.1787 13.3736 14.1027 13.4433C14.0999 13.4459 14.0968 13.4481 14.0935 13.4499C14.0757 13.4593 14.0533 13.4558 14.0392 13.4399C14.0225 13.4212 14.0238 13.3923 14.0422 13.3754C14.0877 13.3336 14.0994 13.2656 14.0706 13.2101C14.0359 13.1431 13.9541 13.117 13.8883 13.152C13.8338 13.1809 13.8057 13.2437 13.82 13.3046C13.8257 13.3291 13.811 13.3537 13.7867 13.3594C13.7625 13.3652 13.7382 13.3499 13.7325 13.3253L13.7325 13.3253ZM14.4443 13.7351C14.5023 13.8468 14.4602 13.9851 14.3505 14.0434C14.2597 14.0917 14.1482 14.0713 14.0792 13.9938C14.0624 13.975 14.0638 13.9462 14.0822 13.9293C14.1007 13.9123 14.129 13.914 14.1457 13.9327C14.1871 13.9791 14.254 13.9914 14.3085 13.9624C14.3743 13.9274 14.3995 13.8444 14.3648 13.7774C14.336 13.7219 14.2741 13.6931 14.2143 13.7072C14.1902 13.713 14.1659 13.6977 14.1601 13.6731C14.1544 13.6485 14.1692 13.624 14.1934 13.6183C14.2932 13.5946 14.3964 13.6426 14.4443 13.7351ZM13.9075 14.0851C13.9313 14.1866 13.8845 14.2912 13.7937 14.3394C13.6841 14.3977 13.5478 14.3542 13.4898 14.2425C13.4419 14.15 13.4614 14.0367 13.5373 13.967C13.5558 13.95 13.5841 13.9516 13.6008 13.9704C13.6175 13.9892 13.6162 14.0181 13.5978 14.0349C13.5523 14.0767 13.5406 14.1447 13.5694 14.2002C13.6041 14.2672 13.6859 14.2933 13.7517 14.2583C13.8062 14.2294 13.8342 14.1666 13.82 14.1057C13.8143 14.0811 13.829 14.0566 13.8533 14.0508C13.8775 14.0451 13.9017 14.0604 13.9075 14.085L13.9075 14.0851ZM13.1957 13.6752C13.1378 13.5635 13.1799 13.4252 13.2895 13.3669C13.3803 13.3187 13.4918 13.339 13.5609 13.4165C13.5776 13.4353 13.5762 13.4641 13.5579 13.481C13.5395 13.498 13.511 13.4964 13.4943 13.4777C13.4529 13.4312 13.386 13.419 13.3315 13.4479C13.2657 13.4829 13.2404 13.5659 13.2752 13.6329C13.304 13.6884 13.3659 13.7173 13.4257 13.7031C13.4498 13.6974 13.4741 13.7127 13.4798 13.7372C13.4847 13.758 13.4749 13.7787 13.4571 13.7881C13.4538 13.7899 13.4503 13.7912 13.4465 13.7921C13.3468 13.8158 13.2436 13.7677 13.1956 13.6752L13.1957 13.6752Z" fill="#C04864"/>
<path d="M9.00067 7.40503L11.5919 7.4008L11.5941 8.76336L9.00289 8.76759L9.00067 7.40503Z" fill="#F5F5F5"/>
<path d="M11.0906 7.85911C11.0166 7.54698 10.6891 7.3131 10.2961 7.31374C9.98407 7.31425 9.71332 7.46313 9.57871 7.68056C9.25378 7.71005 9.00151 7.94126 9.00196 8.22092C9.00245 8.5205 9.29328 8.76349 9.65066 8.76291L11.0542 8.76062C11.3522 8.76013 11.5937 8.557 11.5933 8.3072C11.5929 8.06827 11.3713 7.87494 11.0906 7.85911ZM11.0539 8.57961L9.65036 8.5819C9.41175 8.58228 9.21823 8.42059 9.2179 8.22057C9.21757 8.02055 9.41057 7.85823 9.64918 7.85784L9.72584 7.85772C9.79675 7.64853 10.0243 7.4952 10.2964 7.49476C10.6246 7.49422 10.8906 7.71644 10.891 7.99158L10.8911 8.03683L11.0531 8.03656C11.2323 8.03627 11.3772 8.15732 11.3774 8.30756C11.3776 8.4578 11.2332 8.57931 11.0539 8.57961Z" fill="#C04864"/>
<path d="M10.296 8.28947C10.2954 7.9201 10.5944 7.62018 10.9637 7.61958L11.0577 7.61942C11.4271 7.61882 11.727 7.91776 11.7276 8.28713C11.7282 8.6565 11.4293 8.95643 11.0599 8.95703L10.9659 8.95718C10.5965 8.95779 10.2966 8.65884 10.296 8.28947Z" fill="#F5F5F5"/>
<path d="M10.6986 7.88978L10.5911 7.79019L10.5071 7.86892L10.614 7.9685L10.6986 7.88978ZM10.3555 8.20579L10.5345 8.2055L10.5347 8.31697L10.3557 8.31726L10.3555 8.20579ZM10.9511 7.65027L11.0704 7.65008L11.0707 7.81449L10.9514 7.81469L10.9511 7.65027ZM11.431 7.78855L11.5151 7.86683L11.4085 7.96676L11.3244 7.88843L11.431 7.78855ZM11.325 8.63113L11.4319 8.73128L11.5159 8.65256L11.4083 8.55297L11.325 8.63113ZM11.4889 8.20395L11.6678 8.20365L11.668 8.31512L11.4891 8.31541L11.4889 8.20395ZM11.0112 7.92606C10.8138 7.92638 10.6536 8.07656 10.6539 8.26104C10.6542 8.44552 10.8149 8.59518 11.0123 8.59486C11.2098 8.59454 11.37 8.44435 11.3697 8.25987C11.3694 8.0754 11.2087 7.92573 11.0112 7.92606ZM11.0121 8.48339C10.8803 8.48361 10.7734 8.38402 10.7732 8.26085C10.773 8.13768 10.8796 8.03774 11.0114 8.03752C11.1432 8.03731 11.2502 8.1369 11.2504 8.26007C11.2506 8.38324 11.144 8.48318 11.0121 8.48339ZM10.9529 8.70642L11.0722 8.70623L11.0724 8.87064L10.9531 8.87084L10.9529 8.70642ZM10.5084 8.65365L10.5926 8.73209L10.6992 8.6316L10.615 8.55315L10.5084 8.65365Z" fill="#C04864"/>
</g>
<defs>
<clipPath id="clip0_1595_11049">
<rect width="21.4468" height="24" fill="white"/>
</clipPath>
</defs>
</svg>
