<svg width="21" height="23" viewBox="0 0 21 23" fill="none" xmlns="http://www.w3.org/2000/svg">
<path d="M10.2811 0.970967C10.5164 0.970905 10.7477 1.03148 10.9514 1.1466L18.8992 5.6356C19.1031 5.75072 19.2723 5.91629 19.3899 6.11568C19.5076 6.31506 19.5696 6.54123 19.5696 6.77146V15.7495C19.5696 15.9797 19.5076 16.2058 19.3899 16.4052C19.2723 16.6045 19.1031 16.7701 18.8992 16.8852L10.9514 21.3742C10.7476 21.4893 10.5164 21.55 10.281 21.55C10.0457 21.55 9.81449 21.4893 9.61068 21.3742L1.66285 16.8852C1.45904 16.7701 1.2898 16.6045 1.17214 16.4052C1.05447 16.2058 0.99253 15.9797 0.992536 15.7495V6.77146C0.992533 6.54123 1.05447 6.31506 1.17214 6.11568C1.28981 5.91629 1.45904 5.75072 1.66285 5.6356L9.61068 1.1466C9.81452 1.03149 10.0457 0.970916 10.2811 0.970967ZM10.2811 0C9.87156 0.000156461 9.46926 0.105615 9.11452 0.305806L1.16658 4.79481C0.812336 4.99562 0.518158 5.28386 0.313444 5.63072C0.108732 5.97759 0.000650448 6.37094 0 6.77146V15.7495C0.000671379 16.15 0.108774 16.5434 0.313504 16.8902C0.518235 17.2371 0.812427 17.5253 1.16668 17.7261L9.11452 22.2151C9.46922 22.4155 9.87155 22.5208 10.2811 22.5208C10.6907 22.5208 11.093 22.4155 11.4477 22.2151L19.3955 17.7261C19.7498 17.5254 20.0441 17.2371 20.2489 16.8903C20.4536 16.5434 20.5618 16.15 20.5625 15.7495V6.77146C20.5619 6.37094 20.4537 5.97759 20.2491 5.63073C20.0443 5.28387 19.7501 4.99562 19.3959 4.79481L11.4481 0.305806C11.0934 0.105628 10.6911 0.0001707 10.2815 0H10.2811Z" fill="#E296B5"/>
<path fill-rule="evenodd" clip-rule="evenodd" d="M12.9989 6C12.4361 6.00913 11.8856 6.17304 11.4029 6.47516C10.9203 6.77728 10.5226 7.20693 10.25 7.7207C9.97743 7.20693 9.57974 6.77728 9.09708 6.47516C8.61443 6.17304 8.06391 6.00913 7.50111 6C6.60394 6.04067 5.75867 6.45012 5.14995 7.13891C4.54123 7.82771 4.21856 8.73984 4.25242 9.67605C4.25242 12.047 6.64445 14.6364 8.65065 16.392C9.09857 16.7847 9.66491 17 10.25 17C10.8351 17 11.4014 16.7847 11.8494 16.392C12.4476 15.8684 13.0802 15.2707 13.6735 14.6268H12.2497C11.9257 14.9456 11.5778 15.2679 11.2071 15.5921V15.5942C10.9392 15.8296 10.6002 15.9587 10.25 15.9587C9.89977 15.9587 9.56079 15.8296 9.29289 15.5942C6.72492 13.3464 5.25202 11.1897 5.25202 9.67605C5.21785 9.0163 5.43513 8.36922 5.85645 7.87593C6.27778 7.38265 6.86898 7.08318 7.50111 7.04285C8.13324 7.08318 8.72444 7.38265 9.14576 7.87593C9.56709 8.36922 9.78437 9.0163 9.7502 9.67605C9.7502 9.81434 9.80286 9.94696 9.89659 10.0448C9.99032 10.1425 10.1174 10.1975 10.25 10.1975C10.3826 10.1975 10.5097 10.1425 10.6034 10.0448C10.6971 9.94696 10.7498 9.81434 10.7498 9.67605C10.7156 9.0163 10.9329 8.36922 11.3542 7.87593C11.7756 7.38265 12.3668 7.08318 12.9989 7.04285C13.631 7.08318 14.2222 7.38265 14.6435 7.87593C15.0258 8.32342 15.24 8.89747 15.251 9.49274H16.2476V9.68822L16.2476 9.67605C16.2814 8.73984 15.9588 7.82771 15.3501 7.13891C14.7413 6.45012 13.8961 6.04067 12.9989 6ZM15.9784 11.7391C16.1273 11.7391 16.2476 11.5954 16.2476 11.4183L16.247 11.418C16.247 11.2409 16.1267 11.0971 15.9779 11.0971H15.3143C14.9496 11.0971 14.6291 11.3904 14.5346 11.81L14.2488 13.0793L13.3717 8.85513C13.3263 8.66455 13.1842 8.53397 13.0178 8.53044C12.8472 8.52178 12.7057 8.65075 12.6516 8.85128L11.7678 12.5778L11.5153 11.7353C11.4004 11.3535 11.0952 11.0971 10.7551 11.0971H10.0578C9.90894 11.0971 9.78864 11.2409 9.78864 11.418C9.78864 11.5951 9.90894 11.7388 10.0578 11.7388H10.7548C10.8681 11.7388 10.9698 11.8245 11.0083 11.9515L11.4389 13.3869C11.4997 13.5624 11.6362 13.6741 11.8009 13.6635C11.9596 13.6561 12.0939 13.5345 12.1453 13.343L13.0006 9.73711L13.8817 13.9805C13.9272 14.1727 14.0704 14.3036 14.238 14.3058H14.2426C14.4084 14.3058 14.5521 14.1797 14.6035 13.9792L15.0548 11.9765C15.0863 11.837 15.1932 11.7391 15.3148 11.7391H15.9784Z" fill="#E296B5"/>
</svg>
