<svg width="22" height="23" viewBox="0 0 22 23" fill="none" xmlns="http://www.w3.org/2000/svg">
<g clip-path="url(#clip0_1262_7821)">
<mask id="mask0_1262_7821" style="mask-type:luminance" maskUnits="userSpaceOnUse" x="0" y="0" width="22" height="23">
<path d="M21.4161 0H0V22.9463H21.4161V0Z" fill="white"/>
</mask>
<g mask="url(#mask0_1262_7821)">
<path d="M10.7081 0.989309C10.9532 0.989245 11.194 1.05097 11.4063 1.16826L19.6842 5.74206C19.8965 5.85936 20.0727 6.02805 20.1952 6.23121C20.3178 6.43436 20.3823 6.6648 20.3823 6.89938V16.047C20.3823 16.2815 20.3178 16.5119 20.1952 16.7151C20.0727 16.9182 19.8965 17.0869 19.6842 17.2042L11.4063 21.778C11.1939 21.8953 10.9532 21.9571 10.708 21.9571C10.4629 21.9571 10.2221 21.8953 10.0098 21.778L1.73191 17.2042C1.51964 17.0869 1.34337 16.9182 1.22082 16.7151C1.09827 16.5119 1.03375 16.2815 1.03376 16.047V6.89938C1.03376 6.6648 1.09827 6.43436 1.22082 6.23121C1.34338 6.02805 1.51964 5.85936 1.73191 5.74206L10.0098 1.16826C10.2221 1.05098 10.463 0.989257 10.7081 0.989309ZM10.7081 0C10.2816 0.000159417 9.86255 0.10761 9.49307 0.311583L1.21503 4.88539C0.846075 5.08999 0.539678 5.38367 0.326462 5.73709C0.113248 6.09051 0.000677463 6.49129 0 6.89938V16.047C0.000699263 16.4551 0.113292 16.8559 0.326525 17.2093C0.539759 17.5627 0.846169 17.8564 1.21514 18.061L9.49307 22.6348C9.8625 22.8389 10.2815 22.9463 10.7081 22.9463C11.1347 22.9463 11.5537 22.8389 11.9231 22.6348L20.2011 18.061C20.5701 17.8565 20.8766 17.5627 21.0899 17.2094C21.3032 16.8559 21.4158 16.4551 21.4165 16.047V6.89938C21.4159 6.49129 21.3033 6.09051 21.0901 5.7371C20.8768 5.38368 20.5704 5.08999 20.2015 4.88539L11.9236 0.311583C11.5541 0.107623 11.1351 0.000173924 10.7085 0H10.7081Z" fill="#656263"/>
</g>
<path fill-rule="evenodd" clip-rule="evenodd" d="M11.8759 12.0219C11.3986 12.3437 11.0236 12.7954 10.807 13.3235C10.7063 13.3062 10.6038 13.2973 10.5009 13.2973C10.0321 13.2973 9.59166 13.4725 9.26031 13.7901L7.61687 15.3648C7.43767 15.5365 7.14803 15.5365 6.96884 15.3648C6.78964 15.193 6.78964 14.915 6.96884 14.7437L8.61137 13.1695V13.169C8.94317 12.851 9.12557 12.4285 9.12557 11.9796C9.12557 11.5307 8.94271 11.1086 8.61137 10.7906L6.96838 9.21547C6.78918 9.04373 6.78918 8.76613 6.96838 8.59439C7.14757 8.42265 7.43721 8.42265 7.61641 8.59439L9.25939 10.1691H9.25985L9.26031 10.1695C9.92301 10.8042 11.0788 10.8042 11.7406 10.1691L13.3841 8.59395C13.5632 8.42221 13.8529 8.42221 14.0321 8.59395C14.2113 8.7657 14.2113 9.04329 14.0321 9.21503L12.3896 10.7897C12.0577 11.1077 11.8753 11.5294 11.8753 11.9787C11.8753 11.9931 11.8755 12.0075 11.8759 12.0219ZM13.7085 17.25C13.6916 17.25 13.6748 17.2498 13.658 17.2495C13.7791 17.2473 13.8985 17.2382 14.0158 17.2226C13.9135 17.1746 13.8333 17.0668 13.8022 16.9261L12.9838 12.7017L12.1892 16.2914C12.1415 16.4821 12.0167 16.6032 11.8693 16.6105C11.7162 16.6211 11.5895 16.5099 11.533 16.3352L11.133 14.9062C11.0972 14.7797 11.0027 14.6944 10.8975 14.6944H10.25C10.1118 14.6944 10 14.5513 10 14.375C10 14.1987 10.1118 14.0556 10.25 14.0556H10.8977C11.2137 14.0556 11.4973 14.3108 11.604 14.6909L11.8385 15.5297L12.6595 11.8198C12.7097 11.6202 12.8412 11.4918 12.9998 11.5004C13.1543 11.5039 13.2863 11.6339 13.3285 11.8236L14.1432 16.0289L14.4088 14.7653C14.4965 14.3476 14.7942 14.0556 15.133 14.0556H15.7495C15.8877 14.0556 15.9995 14.1987 15.9995 14.375L16 14.3753C16 14.5517 15.8883 14.6947 15.75 14.6947H15.1335C15.0205 14.6947 14.9213 14.7922 14.892 14.9311L14.4727 16.9248C14.4492 17.0234 14.4047 17.1038 14.3472 17.1601C14.3746 17.1534 14.4018 17.1463 14.4288 17.1389C14.4004 17.1479 14.3716 17.1564 14.3427 17.1645C14.2845 17.2194 14.2135 17.25 14.1375 17.25H14.1333C14.0971 17.2495 14.0621 17.242 14.0293 17.2285C13.9244 17.2427 13.8174 17.25 13.7085 17.25ZM10.5005 12.4184C10.3286 12.4184 10.159 12.4346 9.99358 12.4649C10.0252 12.3064 10.0422 12.1439 10.0422 11.9791C10.0422 11.8144 10.0252 11.6519 9.99358 11.4934C10.159 11.5237 10.3281 11.5399 10.5005 11.5399C10.6728 11.5399 10.8419 11.5237 11.0073 11.4934C10.9757 11.6519 10.9588 11.814 10.9588 11.9791C10.9588 12.1443 10.9757 12.3064 11.0073 12.4649C10.8419 12.4346 10.6723 12.4184 10.5005 12.4184ZM11.4895 8.35589C11.7498 7.38605 12.6622 6.70831 13.7085 6.70831C14.972 6.70831 16 7.69352 16 8.90449C16 9.90727 15.2933 10.7818 14.2809 11.0313C14.2429 11.0405 14.2044 11.0453 14.1664 11.0453C13.962 11.0453 13.7759 10.914 13.7227 10.7155C13.6595 10.4805 13.8071 10.2411 14.0522 10.1809C14.659 10.0311 15.083 9.50625 15.083 8.90449C15.083 8.178 14.4661 7.58679 13.7081 7.58679C13.0802 7.58679 12.5325 7.99308 12.3763 8.57463C12.3135 8.80962 12.0651 8.95193 11.8185 8.89044C11.5733 8.83026 11.4258 8.59044 11.489 8.35589H11.4895ZM9.51146 15.6028C9.25115 16.5727 8.33822 17.25 7.29239 17.25C6.02887 17.25 5.00092 16.2648 5.00092 15.0538C5.00092 14.051 5.70761 13.1765 6.71998 12.927C6.96654 12.8664 7.2154 13.0078 7.27773 13.2428C7.34097 13.4778 7.1934 13.7172 6.94821 13.7774C6.34143 13.9272 5.91751 14.452 5.91751 15.0534C5.91751 15.7799 6.53437 16.3711 7.29239 16.3711C7.92026 16.3711 8.46746 15.9648 8.6242 15.3828C8.68744 15.1478 8.93538 15.0064 9.1824 15.067C9.42759 15.1276 9.5747 15.367 9.51192 15.602L9.51146 15.6028ZM5.00092 8.90449C5.00092 7.69352 6.02887 6.70831 7.29239 6.70831C8.33822 6.70831 9.25069 7.38562 9.51146 8.35545C9.5747 8.59044 9.42713 8.82982 9.18194 8.89044C8.93676 8.95149 8.68698 8.80962 8.62374 8.57463C8.46746 7.99264 7.9198 7.58635 7.29193 7.58635C6.53391 7.58635 5.91705 8.17756 5.91705 8.90405C5.91705 9.50581 6.34097 10.0307 6.94775 10.1805C7.19294 10.2407 7.34051 10.4805 7.27727 10.715C7.22411 10.9131 7.03804 11.0449 6.83364 11.0449C6.7956 11.0449 6.75756 11.0405 6.71907 11.0308C5.70715 10.7813 5 9.90683 5 8.90405L5.00092 8.90449Z" fill="#656263"/>
</g>
<defs>
<clipPath id="clip0_1262_7821">
<rect width="21.4468" height="23" fill="white"/>
</clipPath>
</defs>
</svg>
