<svg width="21" height="23" viewBox="0 0 21 23" fill="none" xmlns="http://www.w3.org/2000/svg">
<g clip-path="url(#clip0_1262_7795)">
<mask id="mask0_1262_7795" style="mask-type:luminance" maskUnits="userSpaceOnUse" x="0" y="0" width="21" height="23">
<path d="M20.9699 0H0V22.9463H20.9699V0Z" fill="white"/>
</mask>
<g mask="url(#mask0_1262_7795)">
<path d="M10.485 0.989309C10.725 0.989245 10.9608 1.05097 11.1686 1.16826L19.2741 5.74206C19.482 5.85936 19.6545 6.02805 19.7745 6.23121C19.8945 6.43436 19.9577 6.6648 19.9577 6.89938V16.047C19.9577 16.2815 19.8945 16.5119 19.7745 16.7151C19.6545 16.9182 19.482 17.0869 19.2741 17.2042L11.1686 21.778C10.9607 21.8953 10.725 21.9571 10.485 21.9571C10.245 21.9571 10.0092 21.8953 9.8013 21.778L1.69583 17.2042C1.48798 17.0869 1.31538 16.9182 1.19539 16.7151C1.07539 16.5119 1.01222 16.2815 1.01222 16.047V6.89938C1.01222 6.6648 1.07539 6.43436 1.19539 6.23121C1.31539 6.02805 1.48798 5.85936 1.69583 5.74206L9.8013 1.16826C10.0092 1.05098 10.245 0.989257 10.485 0.989309ZM10.485 0C10.0674 0.000159417 9.65708 0.10761 9.2953 0.311583L1.18972 4.88539C0.828448 5.08999 0.528435 5.38367 0.319661 5.73709C0.110888 6.09051 0.000663349 6.49129 0 6.89938V16.047C0.000684695 16.4551 0.110932 16.8559 0.319722 17.2093C0.528514 17.5627 0.828541 17.8564 1.18982 18.061L9.2953 22.6348C9.65704 22.8389 10.0673 22.9463 10.485 22.9463C10.9027 22.9463 11.313 22.8389 11.6747 22.6348L19.7802 18.061C20.1415 17.8565 20.4417 17.5627 20.6505 17.2094C20.8593 16.8559 20.9696 16.4551 20.9703 16.047V6.89938C20.9697 6.49129 20.8594 6.09051 20.6507 5.7371C20.4419 5.38368 20.1419 5.08999 19.7806 4.88539L11.6752 0.311583C11.3134 0.107623 10.9031 0.000173924 10.4854 0H10.485Z" fill="#7CC1C1"/>
</g>
<g clip-path="url(#clip1_1262_7795)">
<mask id="path-3-inside-1_1262_7795" fill="white">
<path fill-rule="evenodd" clip-rule="evenodd" d="M4.59088 11.5574C4.59088 7.94179 7.50667 5 11.0909 5C13.561 5 15.7137 6.39852 16.8133 8.45053L16.2439 8.54043C15.5443 7.32795 14.4369 6.38347 13.1129 5.89971C12.971 6.183 12.7489 6.60496 12.5658 6.95108C12.5485 6.984 12.5315 7.01622 12.5149 7.04755C12.4082 7.24974 12.321 7.4149 12.2825 7.49275C12.2138 7.63033 12.0892 7.73054 11.9402 7.76792L11.3428 7.91687C11.1857 7.95642 11.0605 8.07179 11.0096 8.22562L10.8986 8.55767C10.8498 8.705 10.8764 8.86642 10.969 8.98992L11.2259 9.33274L10.8908 9.38566C10.802 9.39969 10.7144 9.41739 10.6282 9.43861L10.5351 9.31437C10.3358 9.04896 10.2789 8.70175 10.384 8.38596L10.495 8.05392C10.605 7.72296 10.8726 7.47542 11.2111 7.39092L11.808 7.24196C11.8422 7.16017 11.9538 6.94837 12.0865 6.69758C12.1727 6.53445 12.1843 6.39936 12.1955 6.26828C12.2058 6.14821 12.2157 6.03151 12.2825 5.89971C11.9781 5.8198 11.7881 5.84152 11.5572 5.86793C11.4249 5.88305 11.2792 5.89971 11.0909 5.89971C7.80567 5.89971 5.7727 8.23537 5.7727 11.5525C5.7727 11.6094 5.7712 11.6598 5.76976 11.7082C5.76705 11.7991 5.76457 11.8825 5.7727 11.9864L6.54305 12.0417C6.56417 12.0417 6.58584 12.0341 6.60263 12.0216L7.22771 11.5525C7.56508 11.2987 8.05167 11.3256 8.36828 11.5912C8.34056 11.684 8.31696 11.7787 8.29769 11.8751C8.27086 12.0092 8.25296 12.1427 8.24352 12.275L8.06459 12.0514C7.94271 11.8992 7.71088 11.8689 7.5538 11.9864L6.92817 12.4555C6.81767 12.5384 6.68171 12.5833 6.54413 12.5833L5.7727 12.4447C6.24991 15.2478 8.10359 16.8182 11.0909 16.8182C12.808 16.8182 13.5584 16.7511 14.6363 15.6364H15.5663C15.7857 15.6364 16.0009 15.6147 16.2097 15.5731C15.029 17.0605 13.1911 18 11.0909 18C7.44601 18 4.59088 15.173 4.59088 11.5574Z"/>
</mask>
<path fill-rule="evenodd" clip-rule="evenodd" d="M4.59088 11.5574C4.59088 7.94179 7.50667 5 11.0909 5C13.561 5 15.7137 6.39852 16.8133 8.45053L16.2439 8.54043C15.5443 7.32795 14.4369 6.38347 13.1129 5.89971C12.971 6.183 12.7489 6.60496 12.5658 6.95108C12.5485 6.984 12.5315 7.01622 12.5149 7.04755C12.4082 7.24974 12.321 7.4149 12.2825 7.49275C12.2138 7.63033 12.0892 7.73054 11.9402 7.76792L11.3428 7.91687C11.1857 7.95642 11.0605 8.07179 11.0096 8.22562L10.8986 8.55767C10.8498 8.705 10.8764 8.86642 10.969 8.98992L11.2259 9.33274L10.8908 9.38566C10.802 9.39969 10.7144 9.41739 10.6282 9.43861L10.5351 9.31437C10.3358 9.04896 10.2789 8.70175 10.384 8.38596L10.495 8.05392C10.605 7.72296 10.8726 7.47542 11.2111 7.39092L11.808 7.24196C11.8422 7.16017 11.9538 6.94837 12.0865 6.69758C12.1727 6.53445 12.1843 6.39936 12.1955 6.26828C12.2058 6.14821 12.2157 6.03151 12.2825 5.89971C11.9781 5.8198 11.7881 5.84152 11.5572 5.86793C11.4249 5.88305 11.2792 5.89971 11.0909 5.89971C7.80567 5.89971 5.7727 8.23537 5.7727 11.5525C5.7727 11.6094 5.7712 11.6598 5.76976 11.7082C5.76705 11.7991 5.76457 11.8825 5.7727 11.9864L6.54305 12.0417C6.56417 12.0417 6.58584 12.0341 6.60263 12.0216L7.22771 11.5525C7.56508 11.2987 8.05167 11.3256 8.36828 11.5912C8.34056 11.684 8.31696 11.7787 8.29769 11.8751C8.27086 12.0092 8.25296 12.1427 8.24352 12.275L8.06459 12.0514C7.94271 11.8992 7.71088 11.8689 7.5538 11.9864L6.92817 12.4555C6.81767 12.5384 6.68171 12.5833 6.54413 12.5833L5.7727 12.4447C6.24991 15.2478 8.10359 16.8182 11.0909 16.8182C12.808 16.8182 13.5584 16.7511 14.6363 15.6364H15.5663C15.7857 15.6364 16.0009 15.6147 16.2097 15.5731C15.029 17.0605 13.1911 18 11.0909 18C7.44601 18 4.59088 15.173 4.59088 11.5574Z" fill="#7CC1C1"/>
<path d="M16.8133 8.45053L17.1252 10.4261L19.9056 9.98704L18.5761 7.50591L16.8133 8.45053ZM16.2439 8.54043L14.5116 9.53997L15.1984 10.7303L16.5558 10.516L16.2439 8.54043ZM13.1129 5.89971L13.7993 4.02117L12.1238 3.40897L11.3248 5.00391L13.1129 5.89971ZM12.5658 6.95108L10.7979 6.01594L10.7969 6.01782L12.5658 6.95108ZM12.5149 7.04755L14.2836 7.98123V7.98123L12.5149 7.04755ZM12.2825 7.49275L14.0714 8.38718L14.0757 8.37853L12.2825 7.49275ZM11.9402 7.76792L12.424 9.70851L12.4269 9.70779L11.9402 7.76792ZM11.3428 7.91687L10.8589 5.97627L10.8545 5.97738L11.3428 7.91687ZM11.0096 8.22562L12.9064 8.85994L12.9083 8.85407L11.0096 8.22562ZM10.8986 8.55767L9.00183 7.92335L8.99983 7.9294L10.8986 8.55767ZM10.969 8.98992L12.5694 7.79047L12.569 7.78992L10.969 8.98992ZM11.2259 9.33274L11.5379 11.3083L14.8178 10.7904L12.8264 8.13329L11.2259 9.33274ZM10.8908 9.38566L11.2027 11.3612L11.2027 11.3612L10.8908 9.38566ZM10.6282 9.43861L9.02759 10.6378L9.82122 11.6971L11.1064 11.3806L10.6282 9.43861ZM10.5351 9.31437L12.1358 8.1152L12.1343 8.11333L10.5351 9.31437ZM10.384 8.38596L8.48726 7.75164L8.48631 7.75448L10.384 8.38596ZM10.495 8.05392L12.3918 8.68823L12.393 8.68451L10.495 8.05392ZM11.2111 7.39092L10.7269 5.45042L10.7268 5.45045L11.2111 7.39092ZM11.808 7.24196L12.2923 9.18245L13.267 8.93921L13.6538 8.01206L11.808 7.24196ZM12.0865 6.69758L13.8542 7.63301L13.8546 7.63223L12.0865 6.69758ZM12.1955 6.26828L10.2028 6.09773L10.2028 6.09773L12.1955 6.26828ZM12.2825 5.89971L14.0665 6.80393L15.1866 4.59412L12.7902 3.96522L12.2825 5.89971ZM11.5572 5.86793L11.3299 3.88088L11.5572 5.86793ZM5.76976 11.7082L3.77064 11.6487L3.77064 11.6487L5.76976 11.7082ZM5.7727 11.9864L3.77879 12.1424L3.91302 13.8582L5.62962 13.9813L5.7727 11.9864ZM6.54305 12.0417L6.39997 14.0365L6.47142 14.0417H6.54305V12.0417ZM6.60263 12.0216L7.79435 13.6278L7.80307 13.6213L6.60263 12.0216ZM7.22771 11.5525L8.42816 13.1522L8.43024 13.1506L7.22771 11.5525ZM8.36828 11.5912L10.2847 12.1633L10.6608 10.9035L9.65346 10.0587L8.36828 11.5912ZM8.29769 11.8751L10.2588 12.2673L10.2588 12.2673L8.29769 11.8751ZM8.24352 12.275L6.68199 13.5247L9.87493 17.5145L10.2385 12.4173L8.24352 12.275ZM8.06459 12.0514L9.62612 10.8018L9.62578 10.8013L8.06459 12.0514ZM7.5538 11.9864L6.35557 10.3851L6.35402 10.3863L7.5538 11.9864ZM6.92817 12.4555L5.72839 10.8553L5.72817 10.8555L6.92817 12.4555ZM6.54413 12.5833L6.1903 14.5518L6.36581 14.5833H6.54413V12.5833ZM5.7727 12.4447L6.12653 10.4762L3.32302 9.97228L3.80107 12.7803L5.7727 12.4447ZM14.6363 15.6364V13.6364H13.7882L13.1986 14.2461L14.6363 15.6364ZM16.2097 15.5731L17.7762 16.8165L21.165 12.5472L15.8191 13.6116L16.2097 15.5731ZM11.0909 3C6.38551 3 2.59088 6.85389 2.59088 11.5574H6.59088C6.59088 9.02969 8.62784 7 11.0909 7V3ZM18.5761 7.50591C17.1469 4.83862 14.3366 3 11.0909 3V7C12.7854 7 14.2805 7.95842 15.0504 9.39516L18.5761 7.50591ZM16.5558 10.516L17.1252 10.4261L16.5013 6.47501L15.932 6.5649L16.5558 10.516ZM12.4266 7.77824C13.301 8.09775 14.0421 8.72623 14.5116 9.53997L17.9762 7.54089C17.0466 5.92966 15.5729 4.66919 13.7993 4.02117L12.4266 7.77824ZM14.3338 7.88622C14.5149 7.54382 14.7475 7.10203 14.9011 6.79551L11.3248 5.00391C11.1945 5.26397 10.983 5.6661 10.7979 6.01594L14.3338 7.88622ZM14.2836 7.98123C14.3001 7.94993 14.3172 7.91751 14.3347 7.88435L10.7969 6.01782C10.7797 6.0505 10.7628 6.08252 10.7462 6.11388L14.2836 7.98123ZM14.0757 8.37853C14.0988 8.33181 14.168 8.20015 14.2836 7.98123L10.7462 6.11388C10.6483 6.29933 10.5432 6.49799 10.4894 6.60697L14.0757 8.37853ZM12.4269 9.70779C13.1435 9.528 13.7426 9.04473 14.0714 8.38717L10.4937 6.59833C10.6849 6.21594 11.0349 5.93308 11.4535 5.82805L12.4269 9.70779ZM11.8266 9.85747L12.424 9.70851L11.4564 5.82732L10.8589 5.97628L11.8266 9.85747ZM12.9083 8.85407C12.7422 9.35589 12.331 9.73049 11.831 9.85637L10.8545 5.97738C10.0403 6.18234 9.37886 6.78769 9.11093 7.59718L12.9083 8.85407ZM12.7953 9.19198L12.9064 8.85994L9.11288 7.59131L9.00184 7.92336L12.7953 9.19198ZM12.569 7.78992C12.8694 8.19041 12.9542 8.71193 12.7973 9.18593L8.99983 7.9294C8.74549 8.69807 8.88338 9.54242 9.36901 10.1899L12.569 7.78992ZM12.8264 8.13329L12.5694 7.79047L9.36859 10.1894L9.62553 10.5322L12.8264 8.13329ZM11.2027 11.3612L11.5379 11.3083L10.914 7.35722L10.5788 7.41014L11.2027 11.3612ZM11.1064 11.3806C11.1378 11.3729 11.1699 11.3664 11.2027 11.3612L10.5788 7.41014C10.434 7.43301 10.2909 7.46192 10.15 7.49663L11.1064 11.3806ZM8.93451 10.5136L9.02759 10.6378L12.2288 8.23943L12.1357 8.1152L8.93451 10.5136ZM8.48631 7.75448C8.17382 8.69358 8.34272 9.72557 8.93591 10.5154L12.1343 8.11333C12.3289 8.37234 12.384 8.70992 12.2817 9.01744L8.48631 7.75448ZM8.5983 7.4196L8.48726 7.75164L12.2808 9.02027L12.3918 8.68823L8.5983 7.4196ZM10.7268 5.45045C9.72535 5.70041 8.9234 6.44108 8.59706 7.42333L12.393 8.68451C12.2866 9.00484 12.0198 9.25042 11.6955 9.33138L10.7268 5.45045ZM11.3238 5.30147L10.7269 5.45042L11.6954 9.33141L12.2923 9.18245L11.3238 5.30147ZM10.3187 5.76216C10.2183 5.95189 10.0421 6.28046 9.96226 6.47185L13.6538 8.01206C13.6379 8.05034 13.6291 8.06658 13.6423 8.03966C13.6516 8.02076 13.6663 7.99154 13.6878 7.94991C13.7309 7.86632 13.787 7.76 13.8542 7.63301L10.3187 5.76216ZM10.2028 6.09773C10.196 6.17653 10.1983 6.1228 10.2132 6.05308C10.2327 5.9619 10.267 5.85999 10.3183 5.76294L13.8546 7.63223C14.1442 7.08453 14.1748 6.59512 14.1882 6.43882L10.2028 6.09773ZM10.4986 4.99548C10.238 5.50971 10.2126 5.98225 10.2028 6.09773L14.1882 6.43883C14.1947 6.36302 14.1923 6.41401 14.179 6.48065C14.1612 6.56959 14.1272 6.68414 14.0665 6.80393L10.4986 4.99548ZM11.7844 7.85498C11.7992 7.85329 11.8115 7.85188 11.8234 7.85054C11.835 7.84923 11.8449 7.84815 11.8536 7.84722C11.8713 7.84535 11.8818 7.84438 11.8881 7.84386C11.8998 7.84291 11.8907 7.84405 11.8703 7.84383C11.8602 7.84372 11.8488 7.84329 11.8364 7.8424C11.8241 7.84152 11.8125 7.84028 11.8021 7.83885C11.7917 7.83744 11.7838 7.83601 11.7787 7.83499C11.7737 7.83398 11.7723 7.83353 11.7749 7.8342L12.7902 3.96522C12.1133 3.78755 11.6181 3.84793 11.3299 3.88088L11.7844 7.85498ZM11.0909 7.89971C11.4027 7.89971 11.6466 7.87073 11.7844 7.85498L11.3299 3.88088C11.2033 3.89536 11.1558 3.89971 11.0909 3.89971V7.89971ZM7.7727 11.5525C7.7727 10.2983 8.15299 9.39998 8.67154 8.83647C9.17297 8.29157 9.94763 7.89971 11.0909 7.89971V3.89971C8.94892 3.89971 7.06449 4.67568 5.72813 6.1279C4.4089 7.56152 3.7727 9.48957 3.7727 11.5525H7.7727ZM7.76887 11.7677C7.77025 11.7213 7.7727 11.643 7.7727 11.5525H3.7727C3.7727 11.5757 3.77214 11.5983 3.77064 11.6487L7.76887 11.7677ZM7.76661 11.8304C7.76719 11.8379 7.76717 11.843 7.76716 11.8399C7.76716 11.8371 7.76719 11.831 7.76745 11.8191C7.76774 11.8061 7.76815 11.7918 7.76887 11.7677L3.77064 11.6487C3.768 11.7374 3.7613 11.9188 3.77879 12.1424L7.76661 11.8304ZM6.68612 10.0468L5.91577 9.99154L5.62962 13.9813L6.39997 14.0365L6.68612 10.0468ZM5.41093 10.4154C5.71921 10.1867 6.11118 10.0417 6.54305 10.0417V14.0417C7.01717 14.0417 7.45246 13.8815 7.79433 13.6278L5.41093 10.4154ZM6.02727 9.95287L5.40219 10.422L7.80307 13.6213L8.42816 13.1522L6.02727 9.95287ZM9.65346 10.0587C8.66039 9.22589 7.14352 9.11292 6.02519 9.95444L8.43024 13.1506C8.1981 13.3253 7.94108 13.3842 7.72526 13.3755C7.51287 13.3669 7.28335 13.2915 7.08309 13.1236L9.65346 10.0587ZM10.2588 12.2673C10.266 12.2318 10.2746 12.1971 10.2847 12.1633L6.45185 11.019C6.40651 11.1709 6.36796 11.3257 6.33652 11.4828L10.2588 12.2673ZM10.2385 12.4173C10.2419 12.3689 10.2485 12.3189 10.2588 12.2673L6.33652 11.4828C6.29319 11.6995 6.26401 11.9165 6.24859 12.1327L10.2385 12.4173ZM6.50306 13.3011L6.68199 13.5247L9.80505 11.0254L9.62612 10.8018L6.50306 13.3011ZM8.75203 13.5877C8.042 14.119 7.0535 13.9885 6.50339 13.3015L9.62578 10.8013C8.83193 9.80991 7.37976 9.61872 6.35557 10.3851L8.75203 13.5877ZM8.12795 14.0557L8.75358 13.5866L6.35402 10.3863L5.72839 10.8553L8.12795 14.0557ZM6.54413 14.5833C7.11181 14.5833 7.66937 14.3996 8.12817 14.0555L5.72817 10.8555C5.96597 10.6771 6.25162 10.5833 6.54413 10.5833V14.5833ZM5.41887 14.4131L6.1903 14.5518L6.89796 10.6149L6.12653 10.4762L5.41887 14.4131ZM11.0909 14.8182C9.94852 14.8182 9.22501 14.5225 8.76674 14.1427C8.31251 13.7663 7.92036 13.143 7.74433 12.109L3.80107 12.7803C4.10225 14.5495 4.87554 16.113 6.21428 17.2225C7.54897 18.3286 9.24595 18.8182 11.0909 18.8182V14.8182ZM13.1986 14.2461C12.8244 14.6331 12.6551 14.6928 12.545 14.7248C12.3251 14.7887 11.993 14.8182 11.0909 14.8182V18.8182C11.9058 18.8182 12.8075 18.8141 13.6616 18.5658C14.6255 18.2856 15.3704 17.7544 16.0741 17.0266L13.1986 14.2461ZM15.5663 13.6364H14.6363V17.6364H15.5663V13.6364ZM15.8191 13.6116C15.738 13.6278 15.6536 13.6364 15.5663 13.6364V17.6364C15.9178 17.6364 16.2639 17.6016 16.6002 17.5346L15.8191 13.6116ZM11.0909 20C13.8035 20 16.2175 18.7802 17.7762 16.8165L14.6432 14.3297C13.8405 15.3409 12.5786 16 11.0909 16V20ZM2.59088 11.5574C2.59088 16.2949 6.35881 20 11.0909 20V16C8.53321 16 6.59088 14.0512 6.59088 11.5574H2.59088Z" fill="#7CC1C1" mask="url(#path-3-inside-1_1262_7795)"/>
<path d="M17 12.0912C17 12.2362 16.8637 12.3538 16.695 12.3538H15.9429C15.8051 12.3538 15.684 12.4339 15.6483 12.5481L15.1369 14.1872C15.0786 14.3514 14.9158 14.4546 14.7279 14.4546H14.7227C14.5327 14.4527 14.3704 14.3456 14.3189 14.1883L13.3204 10.7152L12.3511 13.6665C12.2929 13.8233 12.1407 13.9228 11.9608 13.9289C11.7741 13.9375 11.6195 13.8461 11.5506 13.7025L11.0626 12.5277C11.019 12.4237 10.9037 12.3536 10.7753 12.3536L7.85046 12.2222C7.6818 12.2222 7.54547 12.1045 7.54547 11.9596C7.54547 11.8146 7.6818 11.697 7.85046 11.697L10.7756 11.8284C11.1611 11.8284 11.5069 12.0382 11.6372 12.3507L11.9232 13.0402L12.9248 9.99022C12.9861 9.8261 13.1465 9.72054 13.3399 9.72763C13.5284 9.73052 13.6894 9.8374 13.741 9.99338L14.7349 13.4507L15.0588 12.4119C15.1658 12.0684 15.5291 11.8284 15.9423 11.8284H16.6944C16.8631 11.8284 17 11.9463 17 12.0912Z" fill="#7CC1C1"/>
</g>
</g>
<defs>
<clipPath id="clip0_1262_7795">
<rect width="21" height="23" fill="white"/>
</clipPath>
<clipPath id="clip1_1262_7795">
<rect width="13" height="13" fill="white" transform="translate(4 5)"/>
</clipPath>
</defs>
</svg>
