<svg width="199" height="223" viewBox="0 0 199 223" fill="none" xmlns="http://www.w3.org/2000/svg">
<path fill-rule="evenodd" clip-rule="evenodd" d="M179.703 131.834L179.707 131.838V71.546C179.707 69.5101 179.171 67.5101 178.152 65.7471C177.134 63.984 175.67 62.52 173.907 61.502L105.156 21.808C103.393 20.7899 101.392 20.2539 99.3559 20.2539C97.3197 20.2539 95.3194 20.7899 93.5559 21.808L24.8039 61.502C23.0408 62.52 21.5766 63.984 20.5585 65.7471C19.5404 67.5101 19.0043 69.5101 19.0039 71.546V90.0039L19 90V150.292C19 152.328 19.536 154.328 20.555 156.091C21.573 157.854 23.037 159.318 24.8 160.336L93.551 200.03C95.314 201.048 97.315 201.584 99.351 201.584C101.387 201.584 103.388 201.048 105.151 200.03L173.903 160.336C175.666 159.318 177.13 157.854 178.148 156.091C179.167 154.328 179.703 152.328 179.703 150.292V131.834Z" fill="#7CC1C1"/>
<mask id="mask0_363_7458" style="mask-type:luminance" maskUnits="userSpaceOnUse" x="0" y="0" width="199" height="223">
<path d="M198.715 0H0V222.479H198.715V0Z" fill="white"/>
</mask>
<g mask="url(#mask0_363_7458)">
<path d="M99.358 9.592C101.632 9.59138 103.867 10.1898 105.836 11.327L182.645 55.673C184.615 56.8103 186.25 58.4459 187.387 60.4156C188.524 62.3853 189.123 64.6196 189.123 66.894V155.586C189.123 157.86 188.524 160.094 187.387 162.064C186.25 164.033 184.615 165.669 182.645 166.806L105.836 211.152C103.866 212.289 101.632 212.888 99.3575 212.888C97.0831 212.888 94.8487 212.289 92.879 211.152L16.07 166.806C14.1004 165.669 12.4648 164.033 11.3277 162.064C10.1906 160.094 9.59195 157.86 9.59201 155.586V66.894C9.59198 64.6196 10.1906 62.3853 11.3277 60.4156C12.4649 58.4459 14.1004 56.8103 16.07 55.673L92.879 11.327C94.8489 10.1899 97.0835 9.59149 99.358 9.592ZM99.358 0C95.4002 0.00154565 91.5123 1.04335 88.084 3.021L11.274 47.367C7.85053 49.3508 5.00755 52.1982 3.02917 55.6248C1.0508 59.0515 0.00628602 62.9373 0 66.894V155.586C0.0064883 159.543 1.05121 163.429 3.02975 166.855C5.0083 170.282 7.85141 173.129 11.275 175.113L88.084 219.459C91.5119 221.438 95.4001 222.479 99.358 222.479C103.316 222.479 107.204 221.438 110.632 219.459L187.441 175.113C190.865 173.13 193.709 170.282 195.688 166.856C197.667 163.429 198.712 159.543 198.719 155.586V66.894C198.713 62.9373 197.668 59.0515 195.69 55.6249C193.711 52.1983 190.868 49.3508 187.445 47.367L110.636 3.021C107.208 1.04348 103.32 0.00168631 99.362 0H99.358Z" fill="#2F45CF"/>
<path d="M99.358 9.592C101.632 9.59138 103.867 10.1898 105.836 11.327L182.645 55.673C184.615 56.8103 186.25 58.4459 187.387 60.4156C188.524 62.3853 189.123 64.6196 189.123 66.894V155.586C189.123 157.86 188.524 160.094 187.387 162.064C186.25 164.033 184.615 165.669 182.645 166.806L105.836 211.152C103.866 212.289 101.632 212.888 99.3575 212.888C97.0831 212.888 94.8487 212.289 92.879 211.152L16.07 166.806C14.1004 165.669 12.4648 164.033 11.3277 162.064C10.1906 160.094 9.59195 157.86 9.59201 155.586V66.894C9.59198 64.6196 10.1906 62.3853 11.3277 60.4156C12.4649 58.4459 14.1004 56.8103 16.07 55.673L92.879 11.327C94.8489 10.1899 97.0835 9.59149 99.358 9.592ZM99.358 0C95.4002 0.00154565 91.5123 1.04335 88.084 3.021L11.274 47.367C7.85053 49.3508 5.00755 52.1982 3.02917 55.6248C1.0508 59.0515 0.00628602 62.9373 0 66.894V155.586C0.0064883 159.543 1.05121 163.429 3.02975 166.855C5.0083 170.282 7.85141 173.129 11.275 175.113L88.084 219.459C91.5119 221.438 95.4001 222.479 99.358 222.479C103.316 222.479 107.204 221.438 110.632 219.459L187.441 175.113C190.865 173.13 193.709 170.282 195.688 166.856C197.667 163.429 198.712 159.543 198.719 155.586V66.894C198.713 62.9373 197.668 59.0515 195.69 55.6249C193.711 52.1983 190.868 49.3508 187.445 47.367L110.636 3.021C107.208 1.04348 103.32 0.00168631 99.362 0H99.358Z" fill="#2F45CF"/>
</g>
<path d="M99.5 96.2C101.656 96.2 103.633 94.575 103.633 92.4625V75.4C103.633 73.45 101.836 71.6625 99.5 71.6625C97.3437 71.6625 95.3672 73.2875 95.3672 75.4V92.4625C95.3672 94.4125 97.3437 96.2 99.5 96.2Z" fill="white"/>
<path d="M130.945 107.9C132.023 107.9 133.102 107.575 133.82 106.762L140.109 101.075C141.727 99.6125 141.727 97.3375 140.109 95.875C138.492 94.4125 135.977 94.4125 134.359 95.875L128.07 101.562C126.453 103.025 126.453 105.3 128.07 106.762C128.789 107.575 129.867 107.9 130.945 107.9Z" fill="white"/>
<path d="M149.812 128.862H128.789C126.812 115.862 114.414 105.787 99.5 105.787C84.5859 105.787 72.1875 115.862 70.2109 128.862H49.1875C47.0312 128.862 45.0547 130.487 45.0547 132.6C45.0547 134.712 46.8516 136.337 49.1875 136.337H149.812C151.969 136.337 153.945 134.712 153.945 132.6C153.945 130.487 151.969 128.862 149.812 128.862ZM99.5 113.1C109.922 113.1 118.727 119.925 120.703 128.862H78.2969C80.2734 119.925 89.0781 113.1 99.5 113.1Z" fill="white"/>
<path d="M65.3594 106.762C66.0781 107.412 67.1563 107.9 68.2344 107.9C69.3125 107.9 70.3906 107.575 71.1094 106.762C72.7266 105.3 72.7266 103.025 71.1094 101.562L64.6406 95.875C63.0234 94.4125 60.5078 94.4125 58.8906 95.875C57.2734 97.3375 57.2734 99.6125 58.8906 101.075L65.3594 106.762Z" fill="white"/>
</svg>
