<svg width="20" height="22" viewBox="0 0 20 22" fill="none" xmlns="http://www.w3.org/2000/svg">
<g clip-path="url(#clip0_1262_7768)">
<mask id="mask0_1262_7768" style="mask-type:luminance" maskUnits="userSpaceOnUse" x="0" y="0" width="21" height="23">
<path d="M20.125 0H0V22.0417H20.125V0Z" fill="white"/>
</mask>
<g mask="url(#mask0_1262_7768)">
<path d="M10.0626 0.950308C10.2929 0.950247 10.5192 1.00953 10.7186 1.1222L18.4975 5.51569C18.697 5.62837 18.8626 5.79041 18.9778 5.98556C19.0929 6.1807 19.1536 6.40206 19.1536 6.62739V15.4144C19.1536 15.6397 19.0929 15.861 18.9778 16.0562C18.8626 16.2512 18.697 16.4133 18.4975 16.526L10.7186 20.9195C10.5191 21.0321 10.2929 21.0915 10.0625 21.0915C9.83216 21.0915 9.60587 21.0321 9.40639 20.9195L1.6275 16.526C1.42803 16.4133 1.26238 16.2512 1.14722 16.0562C1.03206 15.861 0.971432 15.6397 0.971438 15.4144V6.62739C0.971435 6.40206 1.03206 6.1807 1.14722 5.98556C1.26239 5.79041 1.42803 5.62837 1.6275 5.51569L9.40639 1.1222C9.60589 1.00954 9.8322 0.950258 10.0626 0.950308ZM10.0626 0C9.66173 0.000153132 9.26798 0.103368 8.92077 0.2993L1.14178 4.69279C0.795068 4.88933 0.507143 5.17143 0.306781 5.51092C0.106421 5.85041 0.000636621 6.23539 0 6.62739V15.4144C0.000657107 15.8064 0.106462 16.1914 0.30684 16.5308C0.507219 16.8704 0.795157 17.1524 1.14188 17.349L8.92077 21.7425C9.26793 21.9385 9.66172 22.0417 10.0626 22.0417C10.4634 22.0417 10.8572 21.9385 11.2043 21.7425L18.9832 17.349C19.33 17.1525 19.618 16.8704 19.8184 16.5309C20.0189 16.1914 20.1247 15.8064 20.1254 15.4144V6.62739C20.1248 6.23539 20.019 5.85041 19.8186 5.51093C19.6182 5.17144 19.3303 4.88933 18.9836 4.69279L11.2047 0.2993C10.8576 0.103381 10.4638 0.000167068 10.063 0H10.0626Z" fill="#2F45CF"/>
</g>
<path fill-rule="evenodd" clip-rule="evenodd" d="M6.35009 9.99458C6.51358 9.99833 6.9828 10 7.47277 10C7.72286 10 7.97824 9.99954 8.20115 9.99878C8.25516 10.0366 8.32665 10.0592 8.40473 10.0582L9.14566 10.0487C9.55277 10.0435 9.90784 9.82226 10.0093 9.51086L10.3164 8.56905L10.9987 10.65H4.71137C4.72602 10.4253 4.75467 10.2044 4.79647 9.9882L4.08915 9.99614L4.08881 9.9657C4.03043 10.3017 4 10.6473 4 11C4 14.3137 6.68629 17 10 17C13.3137 17 16 14.3137 16 11C16 7.71584 13.3614 5.04798 10.0886 5.00062L10.0964 5.70084C12.4569 5.74295 14.4408 7.32823 15.082 9.49068L14.2299 9.50945C14.1034 9.51107 13.989 9.44923 13.9449 9.35592L13.4505 8.30156C13.381 8.17277 13.2276 8.09223 13.0438 8.10241C12.8666 8.11013 12.7178 8.20188 12.6623 8.34413L11.869 10.65H11.6201L10.7177 7.89796C10.6651 7.75662 10.504 7.66196 10.3168 7.66269L10.3117 7.66276C10.1266 7.66513 9.96738 7.76034 9.91189 7.90922L9.76812 8.34982C9.60086 8.15375 9.35671 8.01101 9.07616 7.94729L9.03216 7.93854C8.95691 7.92458 8.91942 7.9175 8.88542 7.84958C8.76456 7.60636 8.55465 7.40114 8.28561 7.26319C8.01657 7.12524 7.70214 7.0616 7.38715 7.08135C7.07215 7.10109 6.77268 7.20321 6.53143 7.37314C6.29017 7.54308 6.11945 7.77215 6.04361 8.02771C5.98948 8.21433 5.98462 8.40853 6.02936 8.59687C5.86295 8.65655 5.72286 8.7578 5.62845 8.88666C5.53403 9.01552 5.48994 9.16562 5.50226 9.31625C5.51458 9.46688 5.5827 9.61061 5.69722 9.7276C5.81174 9.84459 5.96701 9.92907 6.14161 9.96938C6.20974 9.98428 6.27968 9.99274 6.35009 9.99458ZM7.34802 7.50417C7.39678 7.49819 7.44599 7.4952 7.49526 7.49521C7.69356 7.49504 7.88746 7.54385 8.05249 7.63548C8.21751 7.7271 8.34626 7.85743 8.42245 8.01C8.46341 8.09743 8.53111 8.17441 8.61881 8.23329C8.70652 8.29217 8.81119 8.3309 8.92242 8.34562L8.94542 8.35C9.13434 8.3936 9.29555 8.49668 9.39499 8.63748C9.49443 8.77827 9.52433 8.94576 9.47838 9.10458C9.44606 9.21555 9.37761 9.31693 9.28057 9.39754C9.18353 9.47815 9.06167 9.53488 8.92842 9.56146C8.87451 9.57175 8.81947 9.5774 8.76418 9.57833C8.35046 9.58458 6.69982 9.58583 6.36434 9.57833C6.33207 9.57746 6.30002 9.57348 6.26885 9.56646C6.20808 9.55225 6.15271 9.52526 6.10806 9.48809C6.06341 9.45091 6.03097 9.4048 6.01386 9.35417C5.98782 9.2808 5.99511 9.202 6.03435 9.13283C6.07359 9.06366 6.14203 9.00895 6.2266 8.97917C6.33532 8.94073 6.4244 8.87171 6.4783 8.78414C6.53221 8.69657 6.54753 8.59601 6.52158 8.5C6.49326 8.3891 6.49243 8.27454 6.51916 8.16336C6.54588 8.05218 6.59958 7.94673 6.67698 7.85347C6.75437 7.76022 6.85382 7.68113 6.96921 7.62106C7.08461 7.56099 7.21351 7.52121 7.34802 7.50417ZM4.4182 8.47707C4.46183 8.50472 4.51515 8.51966 4.56996 8.51958C4.61494 8.51955 4.65907 8.5094 4.6977 8.49021L5.36491 8.15896C5.49088 8.10438 5.59034 8.01518 5.64643 7.90647C5.70251 7.79777 5.71177 7.67624 5.67264 7.5625C5.64002 7.47647 5.62391 7.38668 5.62489 7.29646C5.63525 7.05061 5.75645 6.81706 5.96431 6.6424C6.17217 6.46774 6.45141 6.36482 6.74631 6.35417C6.90068 6.35802 7.05262 6.3872 7.19344 6.44004C7.33426 6.49287 7.46121 6.56833 7.56701 6.66208C7.66528 6.75069 7.79728 6.80825 7.94065 6.82504C8.08402 6.84182 8.22995 6.81678 8.35371 6.75417L9.02466 6.38333C9.05363 6.3689 9.0788 6.34972 9.09863 6.32696C9.11847 6.30419 9.13257 6.27832 9.14008 6.25089C9.1476 6.22347 9.14837 6.19506 9.14235 6.16738C9.13633 6.13969 9.12364 6.11332 9.10506 6.08983C9.08648 6.06635 9.06238 6.04624 9.03422 6.03073C9.00606 6.01522 8.97442 6.00462 8.94121 5.99957C8.908 5.99453 8.87391 5.99514 8.84099 6.00137C8.80807 6.0076 8.77701 6.01933 8.74968 6.03583L8.08997 6.40042C7.99555 6.44069 7.9318 6.38289 7.86686 6.32401C7.83672 6.29669 7.80633 6.26914 7.77249 6.25104L8.23321 5.59562C8.24981 5.572 8.26066 5.54588 8.26514 5.51877C8.26962 5.49165 8.26765 5.46406 8.25934 5.43757C8.25103 5.41109 8.23655 5.38623 8.21671 5.36441C8.19687 5.34259 8.17207 5.32425 8.14372 5.31042C8.11537 5.29659 8.08403 5.28755 8.05149 5.28381C8.01895 5.28007 7.98585 5.28171 7.95407 5.28864C7.92229 5.29557 7.89246 5.30764 7.86628 5.32417C7.8401 5.34071 7.81809 5.36138 7.80149 5.385L7.34577 6.03396C7.23462 5.99596 7.1185 5.96896 6.9998 5.95354V5.20833C6.9998 5.15308 6.97346 5.10009 6.92658 5.06102C6.8797 5.02195 6.81611 5 6.74981 5C6.68351 5 6.61993 5.02195 6.57305 5.06102C6.52617 5.10009 6.49983 5.15308 6.49983 5.20833V5.95417C6.38644 5.96954 6.27533 5.99489 6.16835 6.02979L5.70763 5.38208C5.67382 5.33454 5.61873 5.30013 5.55448 5.28644C5.49023 5.27275 5.42208 5.28088 5.36503 5.30906C5.30798 5.33724 5.2667 5.38315 5.25027 5.4367C5.24213 5.46321 5.24034 5.4908 5.245 5.51789C5.24966 5.54498 5.26067 5.57104 5.27741 5.59458L5.73613 6.24062C5.64934 6.29876 5.56971 6.36394 5.4984 6.43521L4.72345 6.05729C4.6951 6.0424 4.66344 6.03241 4.63036 6.02792C4.59728 6.02342 4.56345 6.02452 4.53089 6.03114C4.49833 6.03777 4.4677 6.04978 4.44082 6.06646C4.41394 6.08315 4.39137 6.10417 4.37443 6.12827C4.3575 6.15238 4.34655 6.17907 4.34225 6.20677C4.33794 6.23447 4.34036 6.26261 4.34937 6.28952C4.35837 6.31642 4.37378 6.34154 4.39467 6.36339C4.41556 6.38523 4.44151 6.40335 4.47097 6.41667L5.24042 6.79167C5.19458 6.8854 5.16211 6.98329 5.14367 7.08333H4.24998C4.18368 7.08333 4.1201 7.10528 4.07322 7.14435C4.02634 7.18342 4 7.23641 4 7.29167C4 7.34692 4.02634 7.39991 4.07322 7.43898C4.1201 7.47805 4.18368 7.5 4.24998 7.5H5.14417C5.15564 7.56215 5.17235 7.62355 5.19417 7.68375C5.1986 7.70679 5.19361 7.73041 5.18001 7.75081C5.16641 7.77121 5.14499 7.78721 5.11917 7.79625L4.44197 8.13208C4.39483 8.15539 4.35819 8.19097 4.33769 8.23333C4.31719 8.2757 4.31397 8.3225 4.32852 8.36654C4.34306 8.41058 4.37457 8.44942 4.4182 8.47707ZM14.2357 9.98353L15.1985 9.96232C15.2651 10.2979 15.3 10.6449 15.3 11C15.3 11.7668 15.1371 12.4956 14.8441 13.1537L13.831 12.9285C13.289 12.8081 12.7304 12.7817 12.1795 12.8506L11.8945 12.8862C11.2448 12.9674 10.6276 13.2168 10.1038 13.6096C8.88069 14.527 7.1845 14.4717 6.02364 13.4767L4.92594 12.5358C4.81135 12.1567 4.73808 11.7597 4.71137 11.35H11.2282L11.3356 11.6774C11.3881 11.8175 11.548 11.912 11.7337 11.9122C11.9243 11.9162 12.0811 11.8188 12.1396 11.6699L13.091 8.90407L13.3808 9.52293C13.5128 9.80336 13.8559 9.98839 14.2357 9.98353ZM14.6115 13.6142L13.7225 13.4166C13.2365 13.3086 12.7355 13.285 12.2415 13.3467L11.9565 13.3824C11.3932 13.4528 10.858 13.669 10.4038 14.0096C8.99321 15.0676 7.03703 15.0038 5.69824 13.8563L5.36324 13.5692C6.26758 15.1978 8.00508 16.3 10 16.3C11.9765 16.3 13.7003 15.2181 14.6115 13.6142ZM8.00004 15.4999C8.00004 15.3619 8.11197 15.2499 8.25004 15.2499C8.38811 15.2499 8.50004 15.3619 8.50004 15.4999C8.50004 15.638 8.38811 15.7499 8.25004 15.7499C8.11197 15.7499 8.00004 15.638 8.00004 15.4999ZM10.25 15.5C10.1119 15.5 10 15.6119 10 15.75C10 15.8881 10.1119 16 10.25 16C10.3881 16 10.5 15.8881 10.5 15.75C10.5 15.6119 10.3881 15.5 10.25 15.5ZM13 14.7499C13 14.6119 13.1119 14.4999 13.25 14.4999C13.3881 14.4999 13.5 14.6119 13.5 14.7499C13.5 14.888 13.3881 14.9999 13.25 14.9999C13.1119 14.9999 13 14.888 13 14.7499ZM11.75 14C11.6119 14 11.5 14.112 11.5 14.25C11.5 14.3881 11.6119 14.5 11.75 14.5C11.8881 14.5 12 14.3881 12 14.25C12 14.112 11.8881 14 11.75 14ZM6.00002 12.25C6.00002 12.1119 6.11195 12 6.25002 12H6.75002C6.88809 12 7.00002 12.1119 7.00002 12.25C7.00002 12.388 6.88809 12.5 6.75002 12.5H6.25002C6.11195 12.5 6.00002 12.388 6.00002 12.25ZM8.25002 12C8.11195 12 8.00002 12.1119 8.00002 12.25C8.00002 12.388 8.11195 12.5 8.25002 12.5H8.75002C8.88809 12.5 9.00002 12.388 9.00002 12.25C9.00002 12.1119 8.88809 12 8.75002 12H8.25002ZM10.5 12.25C10.5 12.1119 10.612 12 10.75 12H11.25C11.3881 12 11.5 12.1119 11.5 12.25C11.5 12.388 11.3881 12.5 11.25 12.5H10.75C10.612 12.5 10.5 12.388 10.5 12.25ZM13.25 12C13.112 12 13 12.1119 13 12.25C13 12.388 13.112 12.5 13.25 12.5H13.75C13.8881 12.5 14 12.388 14 12.25C14 12.1119 13.8881 12 13.75 12H13.25Z" fill="#2F45CF"/>
</g>
<defs>
<clipPath id="clip0_1262_7768">
<rect width="20" height="22" fill="white"/>
</clipPath>
</defs>
</svg>
