<svg width="199" height="223" viewBox="0 0 199 223" fill="none" xmlns="http://www.w3.org/2000/svg">
<path fill-rule="evenodd" clip-rule="evenodd" d="M179.703 131.834L179.707 131.838V71.546C179.707 69.5101 179.171 67.5101 178.152 65.7471C177.134 63.984 175.67 62.52 173.907 61.502L105.156 21.808C103.393 20.7899 101.392 20.2539 99.3559 20.2539C97.3197 20.2539 95.3194 20.7899 93.5559 21.808L24.8039 61.502C23.0408 62.52 21.5766 63.984 20.5585 65.7471C19.5404 67.5101 19.0043 69.5101 19.0039 71.546V90.0039L19 90V150.292C19 152.328 19.536 154.328 20.555 156.091C21.573 157.854 23.037 159.318 24.8 160.336L93.551 200.03C95.314 201.048 97.315 201.584 99.351 201.584C101.387 201.584 103.388 201.048 105.151 200.03L173.903 160.336C175.666 159.318 177.13 157.854 178.148 156.091C179.167 154.328 179.703 152.328 179.703 150.292V131.834Z" fill="#7CC1C1"/>
<mask id="mask0_349_7511" style="mask-type:luminance" maskUnits="userSpaceOnUse" x="0" y="0" width="199" height="223">
<path d="M198.715 0H0V222.479H198.715V0Z" fill="white"/>
</mask>
<g mask="url(#mask0_349_7511)">
<path d="M99.358 9.592C101.632 9.59138 103.867 10.1898 105.836 11.327L182.645 55.673C184.615 56.8103 186.25 58.4459 187.387 60.4156C188.524 62.3853 189.123 64.6196 189.123 66.894V155.586C189.123 157.86 188.524 160.094 187.387 162.064C186.25 164.033 184.615 165.669 182.645 166.806L105.836 211.152C103.866 212.289 101.632 212.888 99.3575 212.888C97.0831 212.888 94.8487 212.289 92.879 211.152L16.07 166.806C14.1004 165.669 12.4648 164.033 11.3277 162.064C10.1906 160.094 9.59195 157.86 9.59201 155.586V66.894C9.59198 64.6196 10.1906 62.3853 11.3277 60.4156C12.4649 58.4459 14.1004 56.8103 16.07 55.673L92.879 11.327C94.8489 10.1899 97.0835 9.59149 99.358 9.592ZM99.358 0C95.4002 0.00154565 91.5123 1.04335 88.084 3.021L11.274 47.367C7.85053 49.3508 5.00755 52.1982 3.02917 55.6248C1.0508 59.0515 0.00628602 62.9373 0 66.894V155.586C0.0064883 159.543 1.05121 163.429 3.02975 166.855C5.0083 170.282 7.85141 173.129 11.275 175.113L88.084 219.459C91.5119 221.438 95.4001 222.479 99.358 222.479C103.316 222.479 107.204 221.438 110.632 219.459L187.441 175.113C190.865 173.13 193.709 170.282 195.688 166.856C197.667 163.429 198.712 159.543 198.719 155.586V66.894C198.713 62.9373 197.668 59.0515 195.69 55.6249C193.711 52.1983 190.868 49.3508 187.445 47.367L110.636 3.021C107.208 1.04348 103.32 0.00168631 99.362 0H99.358Z" fill="#2F45CF"/>
<path d="M99.358 9.592C101.632 9.59138 103.867 10.1898 105.836 11.327L182.645 55.673C184.615 56.8103 186.25 58.4459 187.387 60.4156C188.524 62.3853 189.123 64.6196 189.123 66.894V155.586C189.123 157.86 188.524 160.094 187.387 162.064C186.25 164.033 184.615 165.669 182.645 166.806L105.836 211.152C103.866 212.289 101.632 212.888 99.3575 212.888C97.0831 212.888 94.8487 212.289 92.879 211.152L16.07 166.806C14.1004 165.669 12.4648 164.033 11.3277 162.064C10.1906 160.094 9.59195 157.86 9.59201 155.586V66.894C9.59198 64.6196 10.1906 62.3853 11.3277 60.4156C12.4649 58.4459 14.1004 56.8103 16.07 55.673L92.879 11.327C94.8489 10.1899 97.0835 9.59149 99.358 9.592ZM99.358 0C95.4002 0.00154565 91.5123 1.04335 88.084 3.021L11.274 47.367C7.85053 49.3508 5.00755 52.1982 3.02917 55.6248C1.0508 59.0515 0.00628602 62.9373 0 66.894V155.586C0.0064883 159.543 1.05121 163.429 3.02975 166.855C5.0083 170.282 7.85141 173.129 11.275 175.113L88.084 219.459C91.5119 221.438 95.4001 222.479 99.358 222.479C103.316 222.479 107.204 221.438 110.632 219.459L187.441 175.113C190.865 173.13 193.709 170.282 195.688 166.856C197.667 163.429 198.712 159.543 198.719 155.586V66.894C198.713 62.9373 197.668 59.0515 195.69 55.6249C193.711 52.1983 190.868 49.3508 187.445 47.367L110.636 3.021C107.208 1.04348 103.32 0.00168631 99.362 0H99.358Z" fill="#2F45CF"/>
<path d="M137.333 110.325V109.618L136.667 109.383C134.936 108.771 133.408 107.695 132.249 106.272C131.089 104.85 130.344 103.136 130.093 101.318C129.843 99.5001 130.098 97.6483 130.83 95.9656C131.562 94.2828 132.743 92.8339 134.243 91.7775C135.744 90.7212 137.506 90.0981 139.337 89.9764C141.168 89.8548 142.998 90.2394 144.625 91.0881C146.252 91.9367 147.614 93.2167 148.562 94.7879C149.51 96.359 150.008 98.1608 150 99.9959C149.991 102.057 149.346 104.065 148.153 105.745C146.96 107.425 145.276 108.696 143.333 109.383L142.667 109.618V110.325V125.667C142.667 133.181 139.681 140.388 134.368 145.701C129.054 151.015 121.848 154 114.333 154C106.819 154 99.6121 151.015 94.2986 145.701C88.9851 140.388 86 133.181 86 125.667V125.373V124.508L85.1436 124.384C79.2795 123.533 73.917 120.601 70.0352 116.124C66.1536 111.648 64.0116 105.924 64 99.999V78C64 75.3478 65.0536 72.8043 66.9289 70.9289C68.8043 69.0536 71.3478 68 74 68H84V73.3333H74C72.7623 73.3333 71.5753 73.825 70.7002 74.7002C69.825 75.5753 69.3333 76.7623 69.3333 78V100C69.3333 105.128 71.3702 110.045 74.9959 113.671C78.6216 117.296 83.5391 119.333 88.6666 119.333C93.7942 119.333 98.7117 117.296 102.337 113.671C105.963 110.045 108 105.128 108 100V78C108 76.7623 107.508 75.5753 106.633 74.7002C105.758 73.825 104.571 73.3333 103.333 73.3333H93.3333V68H103.333C105.985 68 108.529 69.0536 110.404 70.9289C112.28 72.8043 113.333 75.3478 113.333 78V99.9981C113.322 105.924 111.18 111.647 107.298 116.124C103.416 120.601 98.0538 123.533 92.1897 124.384L91.3333 124.508V125.373V125.667C91.3333 131.767 93.7565 137.617 98.0698 141.93C102.383 146.243 108.233 148.667 114.333 148.667C120.433 148.667 126.283 146.243 130.597 141.93C134.91 137.617 137.333 131.767 137.333 125.667V110.325Z" fill="white"/>
<path d="M137.333 110.325V109.618L136.667 109.383C134.936 108.771 133.408 107.695 132.249 106.272C131.089 104.85 130.344 103.136 130.093 101.318C129.843 99.5001 130.098 97.6483 130.83 95.9656C131.562 94.2828 132.743 92.8339 134.243 91.7775C135.744 90.7212 137.506 90.0981 139.337 89.9764C141.168 89.8548 142.998 90.2394 144.625 91.0881C146.252 91.9367 147.614 93.2167 148.562 94.7879C149.51 96.359 150.008 98.1608 150 99.9959C149.991 102.057 149.346 104.065 148.153 105.745C146.96 107.425 145.276 108.696 143.333 109.383L142.667 109.618V110.325V125.667C142.667 133.181 139.681 140.388 134.368 145.701C129.054 151.015 121.848 154 114.333 154C106.819 154 99.6121 151.015 94.2986 145.701C88.9851 140.388 86 133.181 86 125.667V125.373V124.508L85.1436 124.384C79.2795 123.533 73.917 120.601 70.0352 116.124C66.1536 111.648 64.0116 105.924 64 99.999V78C64 75.3478 65.0536 72.8043 66.9289 70.9289C68.8043 69.0536 71.3478 68 74 68H84V73.3333H74C72.7623 73.3333 71.5753 73.825 70.7002 74.7002C69.825 75.5753 69.3333 76.7623 69.3333 78V100C69.3333 105.128 71.3702 110.045 74.9959 113.671C78.6216 117.296 83.5391 119.333 88.6666 119.333C93.7942 119.333 98.7117 117.296 102.337 113.671C105.963 110.045 108 105.128 108 100V78C108 76.7623 107.508 75.5753 106.633 74.7002C105.758 73.825 104.571 73.3333 103.333 73.3333H93.3333V68H103.333C105.985 68 108.529 69.0536 110.404 70.9289C112.28 72.8043 113.333 75.3478 113.333 78V99.9981C113.322 105.924 111.18 111.647 107.298 116.124C103.416 120.601 98.0538 123.533 92.1897 124.384L91.3333 124.508V125.373V125.667C91.3333 131.767 93.7565 137.617 98.0698 141.93C102.383 146.243 108.233 148.667 114.333 148.667C120.433 148.667 126.283 146.243 130.597 141.93C134.91 137.617 137.333 131.767 137.333 125.667V110.325Z" fill="white"/>
<path d="M137.333 110.325V109.618L136.667 109.383C134.936 108.771 133.408 107.695 132.249 106.272C131.089 104.85 130.344 103.136 130.093 101.318C129.843 99.5001 130.098 97.6483 130.83 95.9656C131.562 94.2828 132.743 92.8339 134.243 91.7775C135.744 90.7212 137.506 90.0981 139.337 89.9764C141.168 89.8548 142.998 90.2394 144.625 91.0881C146.252 91.9367 147.614 93.2167 148.562 94.7879C149.51 96.359 150.008 98.1608 150 99.9959C149.991 102.057 149.346 104.065 148.153 105.745C146.96 107.425 145.276 108.696 143.333 109.383L142.667 109.618V110.325V125.667C142.667 133.181 139.681 140.388 134.368 145.701C129.054 151.015 121.848 154 114.333 154C106.819 154 99.6121 151.015 94.2986 145.701C88.9851 140.388 86 133.181 86 125.667V125.373V124.508L85.1436 124.384C79.2795 123.533 73.917 120.601 70.0352 116.124C66.1536 111.648 64.0116 105.924 64 99.999V78C64 75.3478 65.0536 72.8043 66.9289 70.9289C68.8043 69.0536 71.3478 68 74 68H84V73.3333H74C72.7623 73.3333 71.5753 73.825 70.7002 74.7002C69.825 75.5753 69.3333 76.7623 69.3333 78V100C69.3333 105.128 71.3702 110.045 74.9959 113.671C78.6216 117.296 83.5391 119.333 88.6666 119.333C93.7942 119.333 98.7117 117.296 102.337 113.671C105.963 110.045 108 105.128 108 100V78C108 76.7623 107.508 75.5753 106.633 74.7002C105.758 73.825 104.571 73.3333 103.333 73.3333H93.3333V68H103.333C105.985 68 108.529 69.0536 110.404 70.9289C112.28 72.8043 113.333 75.3478 113.333 78V99.9981C113.322 105.924 111.18 111.647 107.298 116.124C103.416 120.601 98.0538 123.533 92.1897 124.384L91.3333 124.508V125.373V125.667C91.3333 131.767 93.7565 137.617 98.0698 141.93C102.383 146.243 108.233 148.667 114.333 148.667C120.433 148.667 126.283 146.243 130.597 141.93C134.91 137.617 137.333 131.767 137.333 125.667V110.325Z" stroke="white" stroke-width="2"/>
<circle cx="140" cy="100" r="9.5" fill="white" stroke="white" stroke-width="3"/>
</g>
</svg>
