<svg width="199" height="223" viewBox="0 0 199 223" fill="none" xmlns="http://www.w3.org/2000/svg">
<path fill-rule="evenodd" clip-rule="evenodd" d="M179.703 131.834L179.707 131.838V71.546C179.707 69.5101 179.171 67.5101 178.152 65.7471C177.134 63.984 175.67 62.52 173.907 61.502L105.156 21.808C103.393 20.7899 101.392 20.2539 99.3559 20.2539C97.3197 20.2539 95.3194 20.7899 93.5559 21.808L24.8039 61.502C23.0408 62.52 21.5766 63.984 20.5585 65.7471C19.5404 67.5101 19.0043 69.5101 19.0039 71.546V90.0039L19 90V150.292C19 152.328 19.536 154.328 20.555 156.091C21.573 157.854 23.037 159.318 24.8 160.336L93.551 200.03C95.314 201.048 97.315 201.584 99.351 201.584C101.387 201.584 103.388 201.048 105.151 200.03L173.903 160.336C175.666 159.318 177.13 157.854 178.148 156.091C179.167 154.328 179.703 152.328 179.703 150.292V131.834Z" fill="#7CC1C1"/>
<mask id="mask0_340_7482" style="mask-type:luminance" maskUnits="userSpaceOnUse" x="0" y="0" width="199" height="223">
<path d="M198.715 0H0V222.479H198.715V0Z" fill="white"/>
</mask>
<g mask="url(#mask0_340_7482)">
<path d="M99.358 9.592C101.632 9.59138 103.867 10.1898 105.836 11.327L182.645 55.673C184.615 56.8103 186.25 58.4459 187.387 60.4156C188.524 62.3853 189.123 64.6196 189.123 66.894V155.586C189.123 157.86 188.524 160.094 187.387 162.064C186.25 164.033 184.615 165.669 182.645 166.806L105.836 211.152C103.866 212.289 101.632 212.888 99.3575 212.888C97.0831 212.888 94.8487 212.289 92.879 211.152L16.07 166.806C14.1004 165.669 12.4648 164.033 11.3277 162.064C10.1906 160.094 9.59195 157.86 9.59201 155.586V66.894C9.59198 64.6196 10.1906 62.3853 11.3277 60.4156C12.4649 58.4459 14.1004 56.8103 16.07 55.673L92.879 11.327C94.8489 10.1899 97.0835 9.59149 99.358 9.592ZM99.358 0C95.4002 0.00154565 91.5123 1.04335 88.084 3.021L11.274 47.367C7.85053 49.3508 5.00755 52.1982 3.02917 55.6248C1.0508 59.0515 0.00628602 62.9373 0 66.894V155.586C0.0064883 159.543 1.05121 163.429 3.02975 166.855C5.0083 170.282 7.85141 173.129 11.275 175.113L88.084 219.459C91.5119 221.438 95.4001 222.479 99.358 222.479C103.316 222.479 107.204 221.438 110.632 219.459L187.441 175.113C190.865 173.13 193.709 170.282 195.688 166.856C197.667 163.429 198.712 159.543 198.719 155.586V66.894C198.713 62.9373 197.668 59.0515 195.69 55.6249C193.711 52.1983 190.868 49.3508 187.445 47.367L110.636 3.021C107.208 1.04348 103.32 0.00168631 99.362 0H99.358Z" fill="#2F45CF"/>
<path d="M99.358 9.592C101.632 9.59138 103.867 10.1898 105.836 11.327L182.645 55.673C184.615 56.8103 186.25 58.4459 187.387 60.4156C188.524 62.3853 189.123 64.6196 189.123 66.894V155.586C189.123 157.86 188.524 160.094 187.387 162.064C186.25 164.033 184.615 165.669 182.645 166.806L105.836 211.152C103.866 212.289 101.632 212.888 99.3575 212.888C97.0831 212.888 94.8487 212.289 92.879 211.152L16.07 166.806C14.1004 165.669 12.4648 164.033 11.3277 162.064C10.1906 160.094 9.59195 157.86 9.59201 155.586V66.894C9.59198 64.6196 10.1906 62.3853 11.3277 60.4156C12.4649 58.4459 14.1004 56.8103 16.07 55.673L92.879 11.327C94.8489 10.1899 97.0835 9.59149 99.358 9.592ZM99.358 0C95.4002 0.00154565 91.5123 1.04335 88.084 3.021L11.274 47.367C7.85053 49.3508 5.00755 52.1982 3.02917 55.6248C1.0508 59.0515 0.00628602 62.9373 0 66.894V155.586C0.0064883 159.543 1.05121 163.429 3.02975 166.855C5.0083 170.282 7.85141 173.129 11.275 175.113L88.084 219.459C91.5119 221.438 95.4001 222.479 99.358 222.479C103.316 222.479 107.204 221.438 110.632 219.459L187.441 175.113C190.865 173.13 193.709 170.282 195.688 166.856C197.667 163.429 198.712 159.543 198.719 155.586V66.894C198.713 62.9373 197.668 59.0515 195.69 55.6249C193.711 52.1983 190.868 49.3508 187.445 47.367L110.636 3.021C107.208 1.04348 103.32 0.00168631 99.362 0H99.358Z" fill="#2F45CF"/>
<path d="M77.4583 127.333H55.9167C53.7547 127.333 52 125.504 52 123.25C52 120.996 53.7547 119.167 55.9167 119.167H75.3629L82.033 108.734C82.8046 107.525 84.1558 106.802 85.5345 106.925C86.9288 107.015 88.1704 107.872 88.7971 109.175L97.5273 127.382L101.616 120.988C102.345 119.853 103.567 119.171 104.875 119.171H122.5C124.662 119.171 126.417 121 126.417 123.254C126.417 125.508 124.662 127.337 122.5 127.337H106.97L100.3 137.77C99.5718 138.91 98.3459 139.587 97.0417 139.587C96.9594 139.587 96.8772 139.587 96.7988 139.579C95.4045 139.489 94.1629 138.632 93.5362 137.329L84.806 119.122L80.717 125.516C79.9885 126.651 78.7665 127.333 77.4583 127.333ZM138.167 104.814V139.583C138.167 150.841 129.382 160 118.583 160H79.4167C68.6184 160 59.8333 150.841 59.8333 139.583C59.8333 137.329 61.588 135.5 63.75 135.5C65.912 135.5 67.6667 137.329 67.6667 139.583C67.6667 146.337 72.9385 151.833 79.4167 151.833H118.583C125.061 151.833 130.333 146.337 130.333 139.583V104.814C130.333 104.148 130.302 103.487 130.243 102.833H110.75C104.272 102.833 99 97.3372 99 90.5833V70.2606C98.3733 70.1993 97.7388 70.1667 97.1004 70.1667H79.4167C72.9385 70.1667 67.6667 75.6628 67.6667 82.4167V106.917C67.6667 109.171 65.912 111 63.75 111C61.588 111 59.8333 109.171 59.8333 106.917V82.4167C59.8333 71.1589 68.6184 62 79.4167 62H97.1004C104.425 62 111.306 64.9727 116.488 70.3708L130.137 84.6012C135.315 89.9994 138.167 97.1779 138.167 104.814ZM127.752 94.6667C126.898 93.1191 125.845 91.6736 124.599 90.3792L110.95 76.1488C109.704 74.8503 108.322 73.7518 106.837 72.8617V90.5874C106.837 92.8373 108.596 94.6708 110.754 94.6708H127.756L127.752 94.6667Z" fill="#F6F8F9"/>
</g>
</svg>
