<svg width="199" height="223" viewBox="0 0 199 223" fill="none" xmlns="http://www.w3.org/2000/svg">
<path fill-rule="evenodd" clip-rule="evenodd" d="M179.703 131.834L179.707 131.838V71.546C179.707 69.5101 179.171 67.5101 178.152 65.7471C177.134 63.984 175.67 62.52 173.907 61.502L105.156 21.808C103.393 20.7899 101.392 20.2539 99.3559 20.2539C97.3197 20.2539 95.3194 20.7899 93.5559 21.808L24.8039 61.502C23.0408 62.52 21.5766 63.984 20.5585 65.7471C19.5404 67.5101 19.0043 69.5101 19.0039 71.546V90.0039L19 90V150.292C19 152.328 19.536 154.328 20.555 156.091C21.573 157.854 23.037 159.318 24.8 160.336L93.551 200.03C95.314 201.048 97.315 201.584 99.351 201.584C101.387 201.584 103.388 201.048 105.151 200.03L173.903 160.336C175.666 159.318 177.13 157.854 178.148 156.091C179.167 154.328 179.703 152.328 179.703 150.292V131.834Z" fill="#7CC1C1"/>
<mask id="mask0_363_7411" style="mask-type:luminance" maskUnits="userSpaceOnUse" x="0" y="0" width="199" height="223">
<path d="M198.715 0H0V222.479H198.715V0Z" fill="white"/>
</mask>
<g mask="url(#mask0_363_7411)">
<path d="M99.358 9.592C101.632 9.59138 103.867 10.1898 105.836 11.327L182.645 55.673C184.615 56.8103 186.25 58.4459 187.387 60.4156C188.524 62.3853 189.123 64.6196 189.123 66.894V155.586C189.123 157.86 188.524 160.094 187.387 162.064C186.25 164.033 184.615 165.669 182.645 166.806L105.836 211.152C103.866 212.289 101.632 212.888 99.3575 212.888C97.0831 212.888 94.8487 212.289 92.879 211.152L16.07 166.806C14.1004 165.669 12.4648 164.033 11.3277 162.064C10.1906 160.094 9.59195 157.86 9.59201 155.586V66.894C9.59198 64.6196 10.1906 62.3853 11.3277 60.4156C12.4649 58.4459 14.1004 56.8103 16.07 55.673L92.879 11.327C94.8489 10.1899 97.0835 9.59149 99.358 9.592ZM99.358 0C95.4002 0.00154565 91.5123 1.04335 88.084 3.021L11.274 47.367C7.85053 49.3508 5.00755 52.1982 3.02917 55.6248C1.0508 59.0515 0.00628602 62.9373 0 66.894V155.586C0.0064883 159.543 1.05121 163.429 3.02975 166.855C5.0083 170.282 7.85141 173.129 11.275 175.113L88.084 219.459C91.5119 221.438 95.4001 222.479 99.358 222.479C103.316 222.479 107.204 221.438 110.632 219.459L187.441 175.113C190.865 173.13 193.709 170.282 195.688 166.856C197.667 163.429 198.712 159.543 198.719 155.586V66.894C198.713 62.9373 197.668 59.0515 195.69 55.6249C193.711 52.1983 190.868 49.3508 187.445 47.367L110.636 3.021C107.208 1.04348 103.32 0.00168631 99.362 0H99.358Z" fill="#2F45CF"/>
<path d="M99.358 9.592C101.632 9.59138 103.867 10.1898 105.836 11.327L182.645 55.673C184.615 56.8103 186.25 58.4459 187.387 60.4156C188.524 62.3853 189.123 64.6196 189.123 66.894V155.586C189.123 157.86 188.524 160.094 187.387 162.064C186.25 164.033 184.615 165.669 182.645 166.806L105.836 211.152C103.866 212.289 101.632 212.888 99.3575 212.888C97.0831 212.888 94.8487 212.289 92.879 211.152L16.07 166.806C14.1004 165.669 12.4648 164.033 11.3277 162.064C10.1906 160.094 9.59195 157.86 9.59201 155.586V66.894C9.59198 64.6196 10.1906 62.3853 11.3277 60.4156C12.4649 58.4459 14.1004 56.8103 16.07 55.673L92.879 11.327C94.8489 10.1899 97.0835 9.59149 99.358 9.592ZM99.358 0C95.4002 0.00154565 91.5123 1.04335 88.084 3.021L11.274 47.367C7.85053 49.3508 5.00755 52.1982 3.02917 55.6248C1.0508 59.0515 0.00628602 62.9373 0 66.894V155.586C0.0064883 159.543 1.05121 163.429 3.02975 166.855C5.0083 170.282 7.85141 173.129 11.275 175.113L88.084 219.459C91.5119 221.438 95.4001 222.479 99.358 222.479C103.316 222.479 107.204 221.438 110.632 219.459L187.441 175.113C190.865 173.13 193.709 170.282 195.688 166.856C197.667 163.429 198.712 159.543 198.719 155.586V66.894C198.713 62.9373 197.668 59.0515 195.69 55.6249C193.711 52.1983 190.868 49.3508 187.445 47.367L110.636 3.021C107.208 1.04348 103.32 0.00168631 99.362 0H99.358Z" fill="#2F45CF"/>
</g>
<path d="M81.0187 104.858H113.719C115.762 104.858 117.636 103.155 117.636 100.941C117.636 98.7266 115.933 97.0234 113.719 97.0234H81.0187C78.975 97.0234 77.1016 98.7266 77.1016 100.941C77.1016 103.155 78.8047 104.858 81.0187 104.858Z" fill="white"/>
<path d="M81.0187 122.911H113.719C115.762 122.911 117.636 121.208 117.636 118.994C117.636 116.78 115.933 115.077 113.719 115.077H81.0187C78.975 115.077 77.1016 116.78 77.1016 118.994C77.1016 121.208 78.8047 122.911 81.0187 122.911Z" fill="white"/>
<path d="M125.981 133.3H81.0187C78.975 133.3 77.1016 135.003 77.1016 137.217C77.1016 139.431 78.8047 141.134 81.0187 141.134H126.152C128.195 141.134 130.069 139.431 130.069 137.217C130.069 135.003 128.195 133.3 125.981 133.3Z" fill="white"/>
<path d="M144.545 75.9047H105.203L101.627 69.0922C99.7531 65.686 96.3469 63.4719 92.4297 63.4719H62.4547C56.6641 63.4719 52.0656 68.0704 52.0656 73.861V149.139C52.0656 154.93 56.6641 159.528 62.4547 159.528H144.716C150.506 159.528 155.105 154.93 155.105 149.139V86.2938C155.105 80.5032 150.336 75.9047 144.545 75.9047ZM147.441 149.139C147.441 150.672 146.248 151.864 144.716 151.864H62.4547C60.9219 151.864 59.7297 150.672 59.7297 149.139V73.861C59.7297 72.3282 60.9219 71.136 62.4547 71.136H92.4297C93.4516 71.136 94.3031 71.6469 94.8141 72.6688L99.5828 81.525C100.264 82.7172 101.627 83.5688 102.989 83.5688H144.716C146.248 83.5688 147.441 84.761 147.441 86.2938V149.139V149.139Z" fill="white"/>
</svg>
