<svg width="22" height="24" viewBox="0 0 22 24" fill="none" xmlns="http://www.w3.org/2000/svg">
<g clip-path="url(#clip0_1262_7811)">
<mask id="mask0_1262_7811" style="mask-type:luminance" maskUnits="userSpaceOnUse" x="0" y="0" width="22" height="24">
<path d="M21.4161 0H0V23.9439H21.4161V0Z" fill="white"/>
</mask>
<g mask="url(#mask0_1262_7811)">
<path d="M10.7081 1.03232C10.9532 1.03226 11.194 1.09666 11.4063 1.21905L19.6842 5.99171C19.8965 6.11411 20.0727 6.29014 20.1952 6.50213C20.3178 6.71411 20.3823 6.95458 20.3823 7.19935V16.7447C20.3823 16.9894 20.3178 17.2298 20.1952 17.4419C20.0727 17.6538 19.8965 17.8298 19.6842 17.9522L11.4063 22.7249C11.1939 22.8472 10.9532 22.9117 10.708 22.9117C10.4629 22.9117 10.2221 22.8472 10.0098 22.7249L1.73191 17.9522C1.51964 17.8298 1.34337 17.6538 1.22082 17.4419C1.09827 17.2298 1.03375 16.9894 1.03376 16.7447V7.19935C1.03376 6.95458 1.09827 6.71411 1.22082 6.50213C1.34338 6.29014 1.51964 6.11411 1.73191 5.99171L10.0098 1.21905C10.2221 1.09667 10.463 1.03227 10.7081 1.03232ZM10.7081 0C10.2816 0.000166348 9.86255 0.112289 9.49307 0.32513L1.21503 5.09779C0.846075 5.3113 0.539678 5.61774 0.326462 5.98653C0.113248 6.35532 0.000677463 6.77352 0 7.19935V16.7447C0.000699263 17.1705 0.113292 17.5888 0.326525 17.9575C0.539759 18.3263 0.846169 18.6327 1.21514 18.8462L9.49307 23.6189C9.8625 23.8319 10.2815 23.9439 10.7081 23.9439C11.1347 23.9439 11.5537 23.8319 11.9231 23.6189L20.2011 18.8462C20.5701 18.6328 20.8766 18.3263 21.0899 17.9576C21.3032 17.5888 21.4158 17.1705 21.4165 16.7447V7.19935C21.4159 6.77352 21.3033 6.35532 21.0901 5.98654C20.8768 5.61775 20.5704 5.3113 20.2015 5.09779L11.9236 0.32513C11.5541 0.112303 11.1351 0.000181486 10.7085 0H10.7081Z" fill="#9BA6E6"/>
</g>
<mask id="path-3-inside-1_1262_7811" fill="white">
<path fill-rule="evenodd" clip-rule="evenodd" d="M8.41836 7.6158C8.41836 8.2483 7.90502 8.76164 7.27252 8.76164C6.64002 8.76164 6.12669 8.2483 6.12669 7.6158C6.12669 6.9833 6.64002 6.46997 7.27252 6.46997C7.90502 6.46997 8.41836 6.9833 8.41836 7.6158ZM7.96002 7.6158C7.96002 7.23539 7.65294 6.9283 7.27252 6.9283C6.89211 6.9283 6.58502 7.23539 6.58502 7.6158C6.58502 7.99622 6.89211 8.3033 7.27252 8.3033C7.65294 8.3033 7.96002 7.99622 7.96002 7.6158ZM8.41836 14.1058C8.61086 14.0141 8.78502 13.8858 8.92711 13.7254V13.73C9.00961 13.6337 9.00502 13.4871 8.90877 13.4046C8.81252 13.3221 8.67044 13.3266 8.58336 13.4229C8.36794 13.6658 8.05627 13.8033 7.73086 13.8033H6.81419C6.18169 13.8033 5.66836 13.29 5.66836 12.6575V10.8241C5.66836 10.1916 6.18169 9.6783 6.81419 9.6783H7.73086C7.85919 9.6783 7.98752 9.70122 8.11127 9.74247C8.23044 9.7883 8.36335 9.72414 8.4046 9.60497C8.45044 9.4858 8.38627 9.35289 8.26711 9.31164C8.09294 9.25205 7.91419 9.21997 7.73086 9.21997H6.81419C5.92961 9.21997 5.21002 9.93955 5.21002 10.8241V12.6575C5.21002 13.2946 5.58586 13.8491 6.12669 14.1058V17.2408C6.12669 17.3691 6.22752 17.47 6.35586 17.47C6.48419 17.47 6.58502 17.3691 6.58502 17.2408V14.2433C6.65836 14.2571 6.73627 14.2616 6.81419 14.2616H7.73086C7.80877 14.2616 7.88669 14.2525 7.96002 14.2433V17.2408C7.96002 17.3691 8.06086 17.47 8.18919 17.47C8.31752 17.47 8.41836 17.3691 8.41836 17.2408V14.1058ZM15.2934 7.6158C15.2934 8.2483 14.78 8.76164 14.1475 8.76164C13.515 8.76164 13.0017 8.2483 13.0017 7.6158C13.0017 6.9833 13.515 6.46997 14.1475 6.46997C14.78 6.46997 15.2934 6.9833 15.2934 7.6158ZM14.835 7.6158C14.835 7.23539 14.5279 6.9283 14.1475 6.9283C13.7671 6.9283 13.46 7.23539 13.46 7.6158C13.46 7.99622 13.7671 8.3033 14.1475 8.3033C14.5279 8.3033 14.835 7.99622 14.835 7.6158ZM16.21 12.6575V10.8241V10.8196C16.21 9.93497 15.4904 9.21539 14.6059 9.21539H13.6892C13.5059 9.21539 13.3225 9.24747 13.1529 9.30705C13.0338 9.3483 12.9742 9.48122 13.0154 9.60039C13.0567 9.71955 13.1896 9.77914 13.3088 9.73789C13.4279 9.69664 13.5563 9.67372 13.6892 9.67372H14.6059C15.2384 9.67372 15.7517 10.1871 15.7517 10.8196V12.6529C15.7517 13.2854 15.2384 13.7987 14.6059 13.7987H13.6892C13.3638 13.7987 13.0521 13.6612 12.8367 13.4183C12.7496 13.3221 12.6029 13.3175 12.5113 13.4C12.415 13.4871 12.4104 13.6291 12.4929 13.7254C12.6396 13.8858 12.8092 14.0141 13.0017 14.1058V17.2408C13.0017 17.3691 13.1025 17.47 13.2309 17.47C13.3592 17.47 13.46 17.3691 13.46 17.2408V14.2433C13.5334 14.2571 13.6113 14.2616 13.6892 14.2616H14.6059C14.6838 14.2616 14.7617 14.2525 14.835 14.2433V17.2408C14.835 17.3691 14.9359 17.47 15.0642 17.47C15.1925 17.47 15.2934 17.3691 15.2934 17.2408V14.1058C15.8342 13.8491 16.21 13.2946 16.21 12.6575ZM15.0017 11.6924C15.1169 11.6924 15.21 11.5929 15.21 11.4702C15.21 11.3476 15.1165 11.2478 15.0013 11.2478H12.4875C12.2052 11.2478 11.9571 11.4509 11.884 11.7415L11.6627 12.6205L10.9838 9.69512C10.9486 9.56313 10.8386 9.4727 10.7098 9.47026C10.5777 9.46426 10.4681 9.55358 10.4263 9.69245L9.74211 12.2732L9.54669 11.6898C9.45773 11.4253 9.22148 11.2478 8.95815 11.2478L6.4783 11.248C6.3631 11.248 6.26997 11.3476 6.26997 11.4702C6.26997 11.5929 6.3631 11.6924 6.4783 11.6924L8.95794 11.6922C9.04565 11.6922 9.1244 11.7515 9.15419 11.8395L9.48752 12.8336C9.53461 12.9551 9.64023 13.0325 9.76773 13.0251C9.89065 13.02 9.99461 12.9358 10.0344 12.8032L10.6965 10.3059L11.3786 13.2447C11.4138 13.3778 11.5246 13.4684 11.6544 13.47H11.6579C11.7863 13.47 11.8975 13.3826 11.9373 13.2438L12.2867 11.8568C12.3111 11.7602 12.3938 11.6924 12.4879 11.6924H15.0017Z"/>
</mask>
<path fill-rule="evenodd" clip-rule="evenodd" d="M8.41836 7.6158C8.41836 8.2483 7.90502 8.76164 7.27252 8.76164C6.64002 8.76164 6.12669 8.2483 6.12669 7.6158C6.12669 6.9833 6.64002 6.46997 7.27252 6.46997C7.90502 6.46997 8.41836 6.9833 8.41836 7.6158ZM7.96002 7.6158C7.96002 7.23539 7.65294 6.9283 7.27252 6.9283C6.89211 6.9283 6.58502 7.23539 6.58502 7.6158C6.58502 7.99622 6.89211 8.3033 7.27252 8.3033C7.65294 8.3033 7.96002 7.99622 7.96002 7.6158ZM8.41836 14.1058C8.61086 14.0141 8.78502 13.8858 8.92711 13.7254V13.73C9.00961 13.6337 9.00502 13.4871 8.90877 13.4046C8.81252 13.3221 8.67044 13.3266 8.58336 13.4229C8.36794 13.6658 8.05627 13.8033 7.73086 13.8033H6.81419C6.18169 13.8033 5.66836 13.29 5.66836 12.6575V10.8241C5.66836 10.1916 6.18169 9.6783 6.81419 9.6783H7.73086C7.85919 9.6783 7.98752 9.70122 8.11127 9.74247C8.23044 9.7883 8.36335 9.72414 8.4046 9.60497C8.45044 9.4858 8.38627 9.35289 8.26711 9.31164C8.09294 9.25205 7.91419 9.21997 7.73086 9.21997H6.81419C5.92961 9.21997 5.21002 9.93955 5.21002 10.8241V12.6575C5.21002 13.2946 5.58586 13.8491 6.12669 14.1058V17.2408C6.12669 17.3691 6.22752 17.47 6.35586 17.47C6.48419 17.47 6.58502 17.3691 6.58502 17.2408V14.2433C6.65836 14.2571 6.73627 14.2616 6.81419 14.2616H7.73086C7.80877 14.2616 7.88669 14.2525 7.96002 14.2433V17.2408C7.96002 17.3691 8.06086 17.47 8.18919 17.47C8.31752 17.47 8.41836 17.3691 8.41836 17.2408V14.1058ZM15.2934 7.6158C15.2934 8.2483 14.78 8.76164 14.1475 8.76164C13.515 8.76164 13.0017 8.2483 13.0017 7.6158C13.0017 6.9833 13.515 6.46997 14.1475 6.46997C14.78 6.46997 15.2934 6.9833 15.2934 7.6158ZM14.835 7.6158C14.835 7.23539 14.5279 6.9283 14.1475 6.9283C13.7671 6.9283 13.46 7.23539 13.46 7.6158C13.46 7.99622 13.7671 8.3033 14.1475 8.3033C14.5279 8.3033 14.835 7.99622 14.835 7.6158ZM16.21 12.6575V10.8241V10.8196C16.21 9.93497 15.4904 9.21539 14.6059 9.21539H13.6892C13.5059 9.21539 13.3225 9.24747 13.1529 9.30705C13.0338 9.3483 12.9742 9.48122 13.0154 9.60039C13.0567 9.71955 13.1896 9.77914 13.3088 9.73789C13.4279 9.69664 13.5563 9.67372 13.6892 9.67372H14.6059C15.2384 9.67372 15.7517 10.1871 15.7517 10.8196V12.6529C15.7517 13.2854 15.2384 13.7987 14.6059 13.7987H13.6892C13.3638 13.7987 13.0521 13.6612 12.8367 13.4183C12.7496 13.3221 12.6029 13.3175 12.5113 13.4C12.415 13.4871 12.4104 13.6291 12.4929 13.7254C12.6396 13.8858 12.8092 14.0141 13.0017 14.1058V17.2408C13.0017 17.3691 13.1025 17.47 13.2309 17.47C13.3592 17.47 13.46 17.3691 13.46 17.2408V14.2433C13.5334 14.2571 13.6113 14.2616 13.6892 14.2616H14.6059C14.6838 14.2616 14.7617 14.2525 14.835 14.2433V17.2408C14.835 17.3691 14.9359 17.47 15.0642 17.47C15.1925 17.47 15.2934 17.3691 15.2934 17.2408V14.1058C15.8342 13.8491 16.21 13.2946 16.21 12.6575ZM15.0017 11.6924C15.1169 11.6924 15.21 11.5929 15.21 11.4702C15.21 11.3476 15.1165 11.2478 15.0013 11.2478H12.4875C12.2052 11.2478 11.9571 11.4509 11.884 11.7415L11.6627 12.6205L10.9838 9.69512C10.9486 9.56313 10.8386 9.4727 10.7098 9.47026C10.5777 9.46426 10.4681 9.55358 10.4263 9.69245L9.74211 12.2732L9.54669 11.6898C9.45773 11.4253 9.22148 11.2478 8.95815 11.2478L6.4783 11.248C6.3631 11.248 6.26997 11.3476 6.26997 11.4702C6.26997 11.5929 6.3631 11.6924 6.4783 11.6924L8.95794 11.6922C9.04565 11.6922 9.1244 11.7515 9.15419 11.8395L9.48752 12.8336C9.53461 12.9551 9.64023 13.0325 9.76773 13.0251C9.89065 13.02 9.99461 12.9358 10.0344 12.8032L10.6965 10.3059L11.3786 13.2447C11.4138 13.3778 11.5246 13.4684 11.6544 13.47H11.6579C11.7863 13.47 11.8975 13.3826 11.9373 13.2438L12.2867 11.8568C12.3111 11.7602 12.3938 11.6924 12.4879 11.6924H15.0017Z" fill="#9BA6E6"/>
<path d="M8.92711 13.7254H12.9271V3.1764L5.93275 11.0732L8.92711 13.7254ZM8.41836 14.1058L6.69862 10.4944L4.41836 11.5802V14.1058H8.41836ZM8.92711 13.73H4.92711V24.543L11.9641 16.3331L8.92711 13.73ZM8.58336 13.4229L5.61722 10.7392L5.60384 10.754L5.5906 10.7689L8.58336 13.4229ZM8.11127 9.74247L9.54718 6.00909L9.46238 5.97647L9.37618 5.94774L8.11127 9.74247ZM8.4046 9.60497L4.67122 8.16906L4.64686 8.2324L4.62466 8.29653L8.4046 9.60497ZM8.26711 9.31164L9.57555 5.53169L9.56871 5.52933L9.56186 5.52698L8.26711 9.31164ZM6.12669 14.1058H10.1267V11.5765L7.84167 10.4921L6.12669 14.1058ZM6.58502 14.2433L7.32218 10.3118L2.58502 9.42359V14.2433H6.58502ZM7.96002 14.2433H11.96V9.71217L7.46388 10.2742L7.96002 14.2433ZM13.1529 9.30705L14.4614 13.087L14.4701 13.084L14.4789 13.0809L13.1529 9.30705ZM13.0154 9.60039L9.23549 10.9088L9.2355 10.9088L13.0154 9.60039ZM13.3088 9.73789L14.6172 13.5178L14.6172 13.5178L13.3088 9.73789ZM12.8367 13.4183L15.8294 10.7644L15.8162 10.7494L15.8028 10.7347L12.8367 13.4183ZM12.5113 13.4L9.8354 10.4268L9.82762 10.4338L12.5113 13.4ZM12.4929 13.7254L9.45591 16.3286L9.4976 16.3772L9.54082 16.4245L12.4929 13.7254ZM13.0017 14.1058H17.0017V11.5802L14.7214 10.4944L13.0017 14.1058ZM13.46 14.2433L14.1972 10.3118L9.46002 9.4236V14.2433H13.46ZM14.835 14.2433H18.835V9.71217L14.3389 10.2742L14.835 14.2433ZM15.2934 14.1058L13.5784 10.4921L11.2934 11.5765V14.1058H15.2934ZM11.884 11.7415L15.763 12.7179L15.7631 12.7175L11.884 11.7415ZM11.6627 12.6205L7.7663 13.5248L15.5417 13.5969L11.6627 12.6205ZM10.9838 9.69512L14.8802 8.79079L14.8654 8.7272L14.8486 8.66412L10.9838 9.69512ZM10.7098 9.47026L10.5283 13.4661L10.5811 13.4685L10.6339 13.4695L10.7098 9.47026ZM10.4263 9.69245L6.59659 8.53766L6.57711 8.60225L6.55983 8.66746L10.4263 9.69245ZM9.74211 12.2732L5.94918 13.5435L10.1882 26.2005L13.6085 13.2982L9.74211 12.2732ZM9.54669 11.6898L13.3396 10.4194L13.3379 10.4142L9.54669 11.6898ZM8.95815 11.2478V7.24781H8.95779L8.95815 11.2478ZM6.4783 11.248V15.248H6.47866L6.4783 11.248ZM6.4783 11.6924V15.6924H6.47866L6.4783 11.6924ZM8.95794 11.6922V7.6922H8.95758L8.95794 11.6922ZM9.15419 11.8395L12.9467 10.5678L12.9429 10.5567L9.15419 11.8395ZM9.48752 12.8336L5.69505 14.1053L5.72434 14.1926L5.75762 14.2785L9.48752 12.8336ZM9.76773 13.0251L9.60157 9.02859L9.56981 9.02991L9.53808 9.03174L9.76773 13.0251ZM10.0344 12.8032L13.8657 13.9525L13.8843 13.8906L13.9008 13.8283L10.0344 12.8032ZM10.6965 10.3059L14.5929 9.40156L6.83006 9.28084L10.6965 10.3059ZM11.3786 13.2447L7.48214 14.149L7.49595 14.2086L7.51158 14.2676L11.3786 13.2447ZM11.6544 13.47L11.6065 17.4697L11.6304 17.47H11.6544V13.47ZM11.9373 13.2438L15.7826 14.3456L15.8004 14.2835L15.8161 14.2209L11.9373 13.2438ZM12.2867 11.8568L8.40812 10.8787L8.40786 10.8797L12.2867 11.8568ZM7.27252 12.7616C10.1142 12.7616 12.4184 10.4574 12.4184 7.6158H4.41836C4.41836 6.03916 5.69588 4.76164 7.27252 4.76164V12.7616ZM2.12669 7.6158C2.12669 10.4574 4.43088 12.7616 7.27252 12.7616V4.76164C8.84916 4.76164 10.1267 6.03916 10.1267 7.6158H2.12669ZM7.27252 2.46997C4.43088 2.46997 2.12669 4.77416 2.12669 7.6158H10.1267C10.1267 9.19244 8.84916 10.47 7.27252 10.47V2.46997ZM12.4184 7.6158C12.4184 4.77416 10.1142 2.46997 7.27252 2.46997V10.47C5.69588 10.47 4.41836 9.19244 4.41836 7.6158H12.4184ZM7.27252 10.9283C5.4438 10.9283 3.96002 9.44453 3.96002 7.6158H11.96C11.96 5.02625 9.86208 2.9283 7.27252 2.9283V10.9283ZM10.585 7.6158C10.585 9.44453 9.10124 10.9283 7.27252 10.9283V2.9283C4.68297 2.9283 2.58502 5.02625 2.58502 7.6158H10.585ZM7.27252 4.3033C9.10124 4.3033 10.585 5.78708 10.585 7.6158H2.58502C2.58502 10.2054 4.68297 12.3033 7.27252 12.3033V4.3033ZM3.96002 7.6158C3.96002 5.78708 5.4438 4.3033 7.27252 4.3033V12.3033C9.86208 12.3033 11.96 10.2054 11.96 7.6158H3.96002ZM5.93275 11.0732C6.1643 10.8118 6.43053 10.622 6.69862 10.4944L10.1381 17.7172C10.7912 17.4062 11.4057 16.9598 11.9215 16.3775L5.93275 11.0732ZM12.9271 13.73V13.7254H4.92711V13.73H12.9271ZM6.30561 16.4416C4.56499 14.9496 4.67558 12.5437 5.89008 11.1268L11.9641 16.3331C13.3436 14.7237 13.4451 12.0245 11.5119 10.3675L6.30561 16.4416ZM11.5495 16.1065C10.1112 17.6963 7.77305 17.6994 6.30561 16.4416L11.5119 10.3675C9.85199 8.94472 7.22972 8.957 5.61722 10.7392L11.5495 16.1065ZM7.73086 17.8033C9.17653 17.8033 10.5858 17.1936 11.5761 16.0768L5.5906 10.7689C6.15007 10.138 6.93602 9.8033 7.73086 9.8033V17.8033ZM6.81419 17.8033H7.73086V9.8033H6.81419V17.8033ZM1.66836 12.6575C1.66836 15.4991 3.97255 17.8033 6.81419 17.8033V9.8033C8.39083 9.8033 9.66836 11.0808 9.66836 12.6575H1.66836ZM1.66836 10.8241V12.6575H9.66836V10.8241H1.66836ZM6.81419 5.6783C3.97255 5.6783 1.66836 7.9825 1.66836 10.8241H9.66836C9.66836 12.4008 8.39083 13.6783 6.81419 13.6783V5.6783ZM7.73086 5.6783H6.81419V13.6783H7.73086V5.6783ZM9.37618 5.94774C8.89011 5.78571 8.33463 5.6783 7.73086 5.6783V13.6783C7.38375 13.6783 7.08494 13.6167 6.84636 13.5372L9.37618 5.94774ZM4.62466 8.29653C5.30651 6.32673 7.50683 5.22434 9.54718 6.00909L6.67536 13.4759C8.95405 14.3523 11.4202 13.1215 12.1845 10.9134L4.62466 8.29653ZM6.95866 13.0916C4.98886 12.4097 3.88647 10.2094 4.67122 8.16906L12.138 11.0409C13.0144 8.7622 11.7837 6.29605 9.57555 5.53169L6.95866 13.0916ZM7.73086 13.22C7.43889 13.22 7.18072 13.1676 6.97235 13.0963L9.56186 5.52698C9.00516 5.33653 8.38948 5.21997 7.73086 5.21997V13.22ZM6.81419 13.22H7.73086V5.21997H6.81419V13.22ZM9.21002 10.8241C9.21002 12.1487 8.13874 13.22 6.81419 13.22V5.21997C3.72047 5.21997 1.21002 7.73041 1.21002 10.8241H9.21002ZM9.21002 12.6575V10.8241H1.21002V12.6575H9.21002ZM7.84167 10.4921C8.64342 10.8726 9.21002 11.692 9.21002 12.6575H1.21002C1.21002 14.8971 2.52829 16.8257 4.41171 17.7195L7.84167 10.4921ZM10.1267 17.2408V14.1058H2.12669V17.2408H10.1267ZM6.35586 13.47C8.43667 13.47 10.1267 15.16 10.1267 17.2408H2.12669C2.12669 19.5783 4.01837 21.47 6.35586 21.47V13.47ZM2.58502 17.2408C2.58502 15.16 4.27504 13.47 6.35586 13.47V21.47C8.69334 21.47 10.585 19.5783 10.585 17.2408H2.58502ZM2.58502 14.2433V17.2408H10.585V14.2433H2.58502ZM6.81419 10.2616C6.87667 10.2616 7.06609 10.2638 7.32218 10.3118L5.84786 18.1748C6.25062 18.2503 6.59587 18.2616 6.81419 18.2616V10.2616ZM7.73086 10.2616H6.81419V18.2616H7.73086V10.2616ZM7.46388 10.2742C7.43101 10.2783 7.45328 10.2752 7.49036 10.2719C7.53073 10.2682 7.61645 10.2616 7.73086 10.2616V18.2616C8.08803 18.2616 8.3935 18.2202 8.45616 18.2124L7.46388 10.2742ZM11.96 17.2408V14.2433H3.96002V17.2408H11.96ZM8.18919 13.47C10.27 13.47 11.96 15.16 11.96 17.2408H3.96002C3.96002 19.5783 5.8517 21.47 8.18919 21.47V13.47ZM4.41836 17.2408C4.41836 15.16 6.10837 13.47 8.18919 13.47V21.47C10.5267 21.47 12.4184 19.5783 12.4184 17.2408H4.41836ZM4.41836 14.1058V17.2408H12.4184V14.1058H4.41836ZM14.1475 12.7616C16.9892 12.7616 19.2934 10.4574 19.2934 7.6158H11.2934C11.2934 6.03917 12.5709 4.76164 14.1475 4.76164V12.7616ZM9.00169 7.6158C9.00169 10.4574 11.3059 12.7616 14.1475 12.7616V4.76164C15.7242 4.76164 17.0017 6.03916 17.0017 7.6158H9.00169ZM14.1475 2.46997C11.3059 2.46997 9.00169 4.77416 9.00169 7.6158H17.0017C17.0017 9.19244 15.7242 10.47 14.1475 10.47V2.46997ZM19.2934 7.6158C19.2934 4.77417 16.9892 2.46997 14.1475 2.46997V10.47C12.5709 10.47 11.2934 9.19244 11.2934 7.6158H19.2934ZM14.1475 10.9283C12.3188 10.9283 10.835 9.44453 10.835 7.6158H18.835C18.835 5.02625 16.7371 2.9283 14.1475 2.9283V10.9283ZM17.46 7.6158C17.46 9.44453 15.9762 10.9283 14.1475 10.9283V2.9283C11.558 2.9283 9.46002 5.02625 9.46002 7.6158H17.46ZM14.1475 4.3033C15.9762 4.3033 17.46 5.78708 17.46 7.6158H9.46002C9.46002 10.2054 11.558 12.3033 14.1475 12.3033V4.3033ZM10.835 7.6158C10.835 5.78708 12.3188 4.3033 14.1475 4.3033V12.3033C16.7371 12.3033 18.835 10.2054 18.835 7.6158H10.835ZM12.21 10.8241V12.6575H20.21V10.8241H12.21ZM12.21 10.8196V10.8241H20.21V10.8196H12.21ZM14.6059 13.2154C13.2813 13.2154 12.21 12.1441 12.21 10.8196H20.21C20.21 7.72583 17.6996 5.21539 14.6059 5.21539V13.2154ZM13.6892 13.2154H14.6059V5.21539H13.6892V13.2154ZM14.4789 13.0809C14.2294 13.1685 13.9648 13.2154 13.6892 13.2154V5.21539C13.0469 5.21539 12.4156 5.3264 11.827 5.53321L14.4789 13.0809ZM16.7954 8.29195C17.4293 10.1232 16.5644 12.359 14.4614 13.087L11.8445 5.52711C9.50313 6.33758 8.5191 8.83924 9.23549 10.9088L16.7954 8.29195ZM12.0003 5.95794C13.8316 5.32404 16.0674 6.18893 16.7954 8.29194L9.2355 10.9088C10.046 13.2502 12.5476 14.2342 14.6172 13.5178L12.0003 5.95794ZM13.6892 5.67372C13.0953 5.67372 12.5254 5.7762 12.0003 5.95794L14.6172 13.5178C14.3305 13.6171 14.0172 13.6737 13.6892 13.6737V5.67372ZM14.6059 5.67372H13.6892V13.6737H14.6059V5.67372ZM19.7517 10.8196C19.7517 7.97792 17.4475 5.67372 14.6059 5.67372V13.6737C13.0292 13.6737 11.7517 12.3962 11.7517 10.8196H19.7517ZM19.7517 12.6529V10.8196H11.7517V12.6529H19.7517ZM14.6059 17.7987C17.4475 17.7987 19.7517 15.4945 19.7517 12.6529H11.7517C11.7517 11.0763 13.0292 9.79872 14.6059 9.79872V17.7987ZM13.6892 17.7987H14.6059V9.79872H13.6892V17.7987ZM9.84394 16.0723C10.8342 17.189 12.2435 17.7987 13.6892 17.7987V9.79872C14.484 9.79872 15.27 10.1335 15.8294 10.7644L9.84394 16.0723ZM15.1871 16.3731C13.6553 17.7518 11.2768 17.6562 9.87054 16.102L15.8028 10.7347C14.2224 8.98787 11.5506 8.88315 9.83541 10.4268L15.1871 16.3731ZM15.53 11.1222C16.7878 12.5897 16.7847 14.9278 15.1949 16.3661L9.82762 10.4338C8.04539 12.0463 8.03309 14.6686 9.45591 16.3286L15.53 11.1222ZM14.7214 10.4944C15.0247 10.6388 15.2668 10.8313 15.4451 11.0263L9.54082 16.4245C10.0124 16.9403 10.5936 17.3895 11.282 17.7172L14.7214 10.4944ZM17.0017 17.2408V14.1058H9.00169V17.2408H17.0017ZM13.2309 13.47C15.3117 13.47 17.0017 15.16 17.0017 17.2408H9.00169C9.00169 19.5783 10.8934 21.47 13.2309 21.47V13.47ZM9.46002 17.2408C9.46002 15.16 11.15 13.47 13.2309 13.47V21.47C15.5683 21.47 17.46 19.5783 17.46 17.2408H9.46002ZM9.46002 14.2433V17.2408H17.46V14.2433H9.46002ZM13.6892 10.2616C13.7517 10.2616 13.9411 10.2638 14.1972 10.3118L12.7229 18.1748C13.1256 18.2503 13.4709 18.2616 13.6892 18.2616V10.2616ZM14.6059 10.2616H13.6892V18.2616H14.6059V10.2616ZM14.3389 10.2742C14.306 10.2783 14.3283 10.2752 14.3654 10.2719C14.4057 10.2682 14.4914 10.2616 14.6059 10.2616V18.2616C14.963 18.2616 15.2685 18.2202 15.3312 18.2124L14.3389 10.2742ZM18.835 17.2408V14.2433H10.835V17.2408H18.835ZM15.0642 13.47C17.145 13.47 18.835 15.16 18.835 17.2408H10.835C10.835 19.5783 12.7267 21.47 15.0642 21.47V13.47ZM11.2934 17.2408C11.2934 15.16 12.9834 13.47 15.0642 13.47V21.47C17.4017 21.47 19.2934 19.5783 19.2934 17.2408H11.2934ZM11.2934 14.1058V17.2408H19.2934V14.1058H11.2934ZM12.21 12.6575C12.21 11.692 12.7766 10.8726 13.5784 10.4921L17.0083 17.7195C18.8918 16.8257 20.21 14.8971 20.21 12.6575H12.21ZM11.21 11.4702C11.21 9.63301 12.6665 7.69242 15.0017 7.69242V15.6924C17.5673 15.6924 19.21 13.5527 19.21 11.4702H11.21ZM15.0013 15.2478C12.671 15.2478 11.21 13.3128 11.21 11.4702H19.21C19.21 9.38238 17.5619 7.24781 15.0013 7.24781V15.2478ZM12.4875 15.2478H15.0013V7.24781H12.4875V15.2478ZM15.7631 12.7175C15.4284 14.0478 14.1954 15.2478 12.4875 15.2478V7.24781C10.2151 7.24781 8.48585 8.85394 8.00488 10.7655L15.7631 12.7175ZM15.5417 13.5969L15.763 12.7179L8.00497 10.7651L7.78372 11.6441L15.5417 13.5969ZM7.08734 10.5994L7.7663 13.5248L15.5592 11.7162L14.8802 8.79079L7.08734 10.5994ZM10.6339 13.4695C8.82808 13.4353 7.50338 12.1673 7.11892 10.7261L14.8486 8.66412C14.3937 6.95896 12.849 5.51014 10.7857 5.47098L10.6339 13.4695ZM14.256 10.8472C13.8776 12.1019 12.5768 13.5592 10.5283 13.4661L10.8913 5.47438C8.57863 5.36933 7.05867 7.00525 6.59659 8.53766L14.256 10.8472ZM13.6085 13.2982L14.2927 10.7174L6.55983 8.66746L5.87566 11.2482L13.6085 13.2982ZM5.75376 12.9601L5.94918 13.5435L13.535 11.0029L13.3396 10.4194L5.75376 12.9601ZM8.95815 15.2478C7.36759 15.2478 6.1695 14.1958 5.7555 12.9653L13.3379 10.4142C12.746 8.6549 11.0754 7.24781 8.95815 7.24781V15.2478ZM6.47866 15.248L8.95851 15.2478L8.95779 7.24781L6.47795 7.24803L6.47866 15.248ZM10.27 11.4702C10.27 13.3074 8.81355 15.248 6.4783 15.248V7.24803C3.91264 7.24803 2.26997 9.38773 2.26997 11.4702H10.27ZM6.4783 7.69242C8.81354 7.69242 10.27 9.63302 10.27 11.4702H2.26997C2.26997 13.5527 3.91265 15.6924 6.4783 15.6924V7.69242ZM8.95758 7.6922L6.47795 7.69242L6.47866 15.6924L8.9583 15.6922L8.95758 7.6922ZM12.9429 10.5567C12.4107 8.98494 10.9042 7.6922 8.95794 7.6922V15.6922C7.18714 15.6922 5.83806 14.5181 5.36547 13.1223L12.9429 10.5567ZM13.28 11.5619L12.9467 10.5678L5.36171 13.1112L5.69505 14.1053L13.28 11.5619ZM9.53808 9.03174C11.3792 8.92586 12.7271 10.123 13.2174 11.3887L5.75762 14.2785C6.3421 15.7873 7.90128 17.1391 9.99739 17.0185L9.53808 9.03174ZM6.20306 11.6539C6.59557 10.3454 7.82857 9.1023 9.60157 9.02859L9.93389 17.0217C11.9527 16.9378 13.3936 15.5262 13.8657 13.9525L6.20306 11.6539ZM6.83006 9.28084L6.16798 11.7781L13.9008 13.8283L14.5629 11.331L6.83006 9.28084ZM15.275 12.3403L14.5929 9.40156L6.80005 11.2103L7.48214 14.149L15.275 12.3403ZM11.7023 9.47026C13.5216 9.49206 14.8611 10.7686 15.2455 12.2217L7.51158 14.2676C7.96641 15.987 9.52759 17.4448 11.6065 17.4697L11.7023 9.47026ZM11.6579 9.46997H11.6544V17.47H11.6579V9.46997ZM8.09205 12.142C8.48674 10.7645 9.80223 9.46997 11.6579 9.46997V17.47C13.7703 17.47 15.3083 16.0008 15.7826 14.3456L8.09205 12.142ZM8.40786 10.8797L8.05849 12.2667L15.8161 14.2209L16.1655 12.8339L8.40786 10.8797ZM12.4879 7.69242C10.4045 7.69242 8.84104 9.16207 8.40812 10.8787L16.1653 12.835C15.7811 14.3583 14.383 15.6924 12.4879 15.6924V7.69242ZM15.0017 7.69242H12.4879V15.6924H15.0017V7.69242Z" fill="#9BA6E6" mask="url(#path-3-inside-1_1262_7811)"/>
</g>
<defs>
<clipPath id="clip0_1262_7811">
<rect width="21.4468" height="24" fill="white"/>
</clipPath>
</defs>
</svg>
