<svg width="24" height="24" viewBox="0 0 24 24" fill="none" xmlns="http://www.w3.org/2000/svg">
<path d="M4 12V9C4 11.21 7.58 13 12 13C12.57 13 13.13 12.97 13.67 12.91C13.25 13.69 13 14.57 13 15.5C13 15.65 13 15.81 13.03 15.96C12.69 16 12.35 16 12 16C7.58 16 4 14.21 4 12ZM4 7C4 4.79 7.58 3 12 3C16.42 3 20 4.79 20 7C20 9.21 16.42 11 12 11C7.58 11 4 9.21 4 7ZM15 20.71C14.07 20.9 13.06 21 12 21C7.58 21 4 19.21 4 17V14C4 16.21 7.58 18 12 18C12.5 18 13.03 17.97 13.5 17.93C13.9 18.91 14.44 19.87 15 20.71Z" fill="#170F31"/>
<path d="M18.25 14.4H16.75V13H18.25V14.4ZM19 18.6V20H16V18.6H16.75V17.2H16V15.8H18.25V18.6H19Z" fill="#170F31"/>
</svg>
