<?xml version="1.0" ?>

<!-- Uploaded to: SVG Repo, www.svgrepo.com, Generator: SVG Repo Mixer Tools -->
<svg fill="#9d42af" width="800px" height="800px" viewBox="0 0 512 512" xmlns="http://www.w3.org/2000/svg">

<g id="Insect_sustainability">

<path d="M359.27,197.32A144.78,144.78,0,0,0,311,164.75c0-.61,0-1.22,0-1.84a55.16,55.16,0,0,0-25.55-46.56,55.46,55.46,0,0,1,11.26-10.48,17.49,17.49,0,1,0-8.9-15.23,17.88,17.88,0,0,0,.27,3A67.64,67.64,0,0,0,271.53,110a55.06,55.06,0,0,0-28.31-.83,68.22,68.22,0,0,0-15.94-15.56,17.88,17.88,0,0,0,.26-3,17.51,17.51,0,1,0-8.89,15.23,56.6,56.6,0,0,1,10,9,55.17,55.17,0,0,0-28.07,48.08c0,.65,0,1.29.05,1.93A145.58,145.58,0,0,0,154.87,195a145.41,145.41,0,0,0,47.77,239.37A21.66,21.66,0,0,0,232,417.71L234.22,404a107.29,107.29,0,0,0,43.28,0l2.17,13.34A21.66,21.66,0,0,0,309,434a145.08,145.08,0,0,0,50.29-236.64Zm1,173.94a126.94,126.94,0,0,1-57.91,45.95,3.57,3.57,0,0,1-3.13-.22,3.61,3.61,0,0,1-1.82-2.6l-4.39-27a21.8,21.8,0,0,0-6.79-41.72L269.35,241.8a13.52,13.52,0,0,0-13.55-11.53h0a13.51,13.51,0,0,0-13.55,11.55L225.42,345.67a21.79,21.79,0,0,0-6.76,41.75l-4.44,27.41a3.66,3.66,0,0,1-4.95,2.82,127.34,127.34,0,0,1,46.52-245.74l2.44,0A127.07,127.07,0,0,1,360.29,371.26Z"/>

<path d="M205.45,202.57a21.8,21.8,0,1,0,21.8,21.8A21.8,21.8,0,0,0,205.45,202.57Z"/>

<path d="M173.24,284.5A21.8,21.8,0,1,0,195,306.3,21.8,21.8,0,0,0,173.24,284.5Z"/>

<circle cx="306.18" cy="224.37" r="21.8" transform="translate(-7.3 10.31) rotate(-1.91)"/>

<path d="M338.39,284.5a21.8,21.8,0,1,0,21.8,21.8A21.8,21.8,0,0,0,338.39,284.5Z"/>

</g>

</svg>