<svg width="199" height="223" viewBox="0 0 199 223" fill="none" xmlns="http://www.w3.org/2000/svg">
<path fill-rule="evenodd" clip-rule="evenodd" d="M179.703 131.834L179.707 131.838V71.546C179.707 69.5101 179.171 67.5101 178.152 65.7471C177.134 63.984 175.67 62.52 173.907 61.502L105.156 21.808C103.393 20.7899 101.392 20.2539 99.3559 20.2539C97.3197 20.2539 95.3194 20.7899 93.5559 21.808L24.8039 61.502C23.0408 62.52 21.5766 63.984 20.5585 65.7471C19.5404 67.5101 19.0043 69.5101 19.0039 71.546V90.0039L19 90V150.292C19 152.328 19.536 154.328 20.555 156.091C21.573 157.854 23.037 159.318 24.8 160.336L93.551 200.03C95.314 201.048 97.315 201.584 99.351 201.584C101.387 201.584 103.388 201.048 105.151 200.03L173.903 160.336C175.666 159.318 177.13 157.854 178.148 156.091C179.167 154.328 179.703 152.328 179.703 150.292V131.834Z" fill="#7CC1C1"/>
<mask id="mask0_363_7389" style="mask-type:luminance" maskUnits="userSpaceOnUse" x="0" y="0" width="199" height="223">
<path d="M198.715 0H0V222.479H198.715V0Z" fill="white"/>
</mask>
<g mask="url(#mask0_363_7389)">
<path d="M99.358 9.592C101.632 9.59138 103.867 10.1898 105.836 11.327L182.645 55.673C184.615 56.8103 186.25 58.4459 187.387 60.4156C188.524 62.3853 189.123 64.6196 189.123 66.894V155.586C189.123 157.86 188.524 160.094 187.387 162.064C186.25 164.033 184.615 165.669 182.645 166.806L105.836 211.152C103.866 212.289 101.632 212.888 99.3575 212.888C97.0831 212.888 94.8487 212.289 92.879 211.152L16.07 166.806C14.1004 165.669 12.4648 164.033 11.3277 162.064C10.1906 160.094 9.59195 157.86 9.59201 155.586V66.894C9.59198 64.6196 10.1906 62.3853 11.3277 60.4156C12.4649 58.4459 14.1004 56.8103 16.07 55.673L92.879 11.327C94.8489 10.1899 97.0835 9.59149 99.358 9.592ZM99.358 0C95.4002 0.00154565 91.5123 1.04335 88.084 3.021L11.274 47.367C7.85053 49.3508 5.00755 52.1982 3.02917 55.6248C1.0508 59.0515 0.00628602 62.9373 0 66.894V155.586C0.0064883 159.543 1.05121 163.429 3.02975 166.855C5.0083 170.282 7.85141 173.129 11.275 175.113L88.084 219.459C91.5119 221.438 95.4001 222.479 99.358 222.479C103.316 222.479 107.204 221.438 110.632 219.459L187.441 175.113C190.865 173.13 193.709 170.282 195.688 166.856C197.667 163.429 198.712 159.543 198.719 155.586V66.894C198.713 62.9373 197.668 59.0515 195.69 55.6249C193.711 52.1983 190.868 49.3508 187.445 47.367L110.636 3.021C107.208 1.04348 103.32 0.00168631 99.362 0H99.358Z" fill="#2F45CF"/>
<path d="M99.358 9.592C101.632 9.59138 103.867 10.1898 105.836 11.327L182.645 55.673C184.615 56.8103 186.25 58.4459 187.387 60.4156C188.524 62.3853 189.123 64.6196 189.123 66.894V155.586C189.123 157.86 188.524 160.094 187.387 162.064C186.25 164.033 184.615 165.669 182.645 166.806L105.836 211.152C103.866 212.289 101.632 212.888 99.3575 212.888C97.0831 212.888 94.8487 212.289 92.879 211.152L16.07 166.806C14.1004 165.669 12.4648 164.033 11.3277 162.064C10.1906 160.094 9.59195 157.86 9.59201 155.586V66.894C9.59198 64.6196 10.1906 62.3853 11.3277 60.4156C12.4649 58.4459 14.1004 56.8103 16.07 55.673L92.879 11.327C94.8489 10.1899 97.0835 9.59149 99.358 9.592ZM99.358 0C95.4002 0.00154565 91.5123 1.04335 88.084 3.021L11.274 47.367C7.85053 49.3508 5.00755 52.1982 3.02917 55.6248C1.0508 59.0515 0.00628602 62.9373 0 66.894V155.586C0.0064883 159.543 1.05121 163.429 3.02975 166.855C5.0083 170.282 7.85141 173.129 11.275 175.113L88.084 219.459C91.5119 221.438 95.4001 222.479 99.358 222.479C103.316 222.479 107.204 221.438 110.632 219.459L187.441 175.113C190.865 173.13 193.709 170.282 195.688 166.856C197.667 163.429 198.712 159.543 198.719 155.586V66.894C198.713 62.9373 197.668 59.0515 195.69 55.6249C193.711 52.1983 190.868 49.3508 187.445 47.367L110.636 3.021C107.208 1.04348 103.32 0.00168631 99.362 0H99.358Z" fill="#2F45CF"/>
</g>
<path d="M139.106 72.325V64.275C139.106 62.175 137.169 60.25 134.65 60.25H96.8688C96.0938 58.85 94.5438 57.8 92.9938 57.8H63.9313C58.5063 57.8 53.8563 61.825 53.8563 66.9V125.175C53.8563 130.075 58.3125 134.275 63.9313 134.275H94.9313V140.05C91.0563 141.275 87.7625 144.075 86.6 147.75H63.35C61.025 147.75 58.8938 149.5 58.8938 151.775C58.8938 154.05 60.8313 155.8 63.35 155.8H86.2125C87.9563 160.525 92.9938 164.025 99 164.025C105.006 164.025 110.044 160.525 111.788 155.8H134.65C136.975 155.8 139.106 154.05 139.106 151.775C139.106 149.5 137.169 147.75 134.65 147.75H111.788C110.431 144.25 107.331 141.275 103.456 140.05V134.275H134.456C139.881 134.275 144.531 130.25 144.531 125.175V80.2C144.338 76.7 142.206 73.9 139.106 72.325ZM99 156.15C96.2875 156.15 94.1563 154.225 94.1563 151.95C94.1563 149.675 96.2875 147.75 99 147.75C101.713 147.75 103.844 149.675 103.844 151.95C103.65 154.225 101.713 156.15 99 156.15ZM130.388 71.1H101.519L100.356 68.3H130.388V71.1V71.1ZM135.619 125.525C135.619 126.225 135.038 126.75 134.263 126.75H63.7375C62.9625 126.75 62.3813 126.225 62.3813 125.525V67.075C62.3813 66.375 62.9625 65.85 63.7375 65.85H89.8938L94.5438 76.35C95.125 77.925 96.8688 78.8 98.6125 78.8H134.456C135.231 78.8 135.813 79.325 135.813 80.025V125.525H135.619Z" fill="white"/>
</svg>
