<svg width="257" height="46" viewBox="0 0 257 46" fill="none" xmlns="http://www.w3.org/2000/svg">
<path fill-rule="evenodd" clip-rule="evenodd" d="M4.28448 41.0047V34.0448C4.28448 31.0097 6.78155 28.5123 9.81617 28.5123H15.3479V34.0448C15.3479 37.0798 12.8508 39.5772 9.81617 39.5772H7.14168V34.0448C7.14168 32.5882 8.35976 31.3699 9.81617 31.3699H12.4907V34.0448C12.4907 35.5014 11.2726 36.7223 9.81617 36.7223H8.56896V38.1497H9.81617C12.0617 38.1497 13.9179 36.2906 13.9179 34.0448V29.9425H9.81617C7.57066 29.9425 5.71175 31.799 5.71175 34.0448V41.0047H9.81617C13.6372 41.0047 16.7751 37.8664 16.7751 34.0448V27.0849H9.81617C5.99509 27.0849 2.8572 30.2232 2.8572 34.0448V43.8596H9.81617C15.2155 43.8596 19.6297 39.4422 19.6297 34.0448V24.2299H9.81352C4.41688 24.2299 0 28.6474 0 34.0448V43.8596H1.42728V34.0448C1.42728 29.434 5.20334 25.6574 9.81352 25.6574H18.1998V34.0448C18.1998 38.6556 14.4237 42.4322 9.81352 42.4322H4.28448V41.0047Z" fill="#E296B5"/>
<path fill-rule="evenodd" clip-rule="evenodd" d="M2.99225 4.28506H9.95122C12.9858 4.28506 15.4829 6.78247 15.4829 9.8175V15.3499H9.95122C6.9166 15.3499 4.41953 12.8525 4.41953 9.8175V7.14265H9.95122C11.4076 7.14265 12.6257 8.3609 12.6257 9.8175V12.4924H9.95122C8.49481 12.4924 7.27673 11.2741 7.27673 9.8175V8.57012H5.84945V9.8175C5.84945 12.0633 7.70835 13.9198 9.95386 13.9198H14.0556V9.8175C14.0556 7.57169 12.1967 5.71253 9.95386 5.71253H2.99225V9.8175C2.99225 13.6391 6.13014 16.7774 9.95122 16.7774H16.9102V9.8175C16.9102 5.99591 13.7723 2.85759 9.95122 2.85759H0.137695V9.8175C0.137695 15.2149 4.55457 19.6324 9.95122 19.6324H19.7647V9.81485C19.7674 4.41748 15.3505 0 9.95386 0H0.137695V1.42747H9.95386C14.564 1.42747 18.3401 5.20404 18.3401 9.81485V18.2022H9.95386C5.34368 18.2022 1.56762 14.4257 1.56762 9.81485V4.28506H2.9949H2.99225Z" fill="#2F45CF"/>
<path fill-rule="evenodd" clip-rule="evenodd" d="M39.7096 2.9953V9.95521C39.7096 12.9902 37.2125 15.4877 34.1779 15.4877H28.6462V9.95521C28.6462 6.92018 31.1433 4.42277 34.1779 4.42277H36.8524V9.95521C36.8524 11.4118 35.6343 12.6301 34.1779 12.6301H31.5034V9.95521C31.5034 8.49861 32.7215 7.28036 34.1779 7.28036H35.4251V5.85289H34.1779C31.9324 5.85289 30.0735 7.71204 30.0735 9.95786V14.0602H34.1779C36.4234 14.0602 38.2823 12.2037 38.2823 9.95786V2.9953H34.1779C30.3568 2.9953 27.2189 6.13362 27.2189 9.95521V16.9151H34.1779C37.999 16.9151 41.1369 13.7768 41.1369 9.95521V0.137711H34.1779C28.7813 0.137711 24.3644 4.55519 24.3644 9.95257V19.7674H34.1779C39.5745 19.7674 43.9914 15.3499 43.9914 9.95257V0.137711H42.5641V9.95521C42.5641 14.566 38.7881 18.3426 34.1779 18.3426H25.7917V9.95521C25.7917 5.3444 29.5677 1.56783 34.1779 1.56783H39.7096V2.9953Z" fill="#7CC1C1"/>
<path fill-rule="evenodd" clip-rule="evenodd" d="M40.9991 39.7149H34.0402C31.0055 39.7149 28.5085 37.2175 28.5085 34.1825V28.6501H34.0402C37.0748 28.6501 39.5719 31.1475 39.5719 34.1825V36.8574H34.0402C32.5838 36.8574 31.3657 35.6391 31.3657 34.1825V31.5076H34.0402C35.4966 31.5076 36.7147 32.7259 36.7147 34.1825V35.4299H38.1419V34.1825C38.1419 31.9367 36.283 30.0802 34.0375 30.0802H29.9358V34.1825C29.9358 36.4283 31.792 38.2875 34.0375 38.2875H40.9965V34.1825C40.9965 30.3609 37.8586 27.2226 34.0375 27.2226H27.0786V34.1825C27.0786 38.0041 30.2164 41.1424 34.0375 41.1424H43.851V34.1825C43.851 28.7851 39.4342 24.3676 34.0375 24.3676H24.224V34.1825C24.224 39.5799 28.6409 43.9974 34.0375 43.9974H43.851V42.5699H34.0375C29.4273 42.5699 25.6513 38.7933 25.6513 34.1825V25.7951H34.0375C38.6477 25.7951 42.4238 29.5717 42.4238 34.1825V39.7149H40.9965H40.9991Z" fill="#96A1E5"/>
<path d="M55.2745 34.0872V11.4409H59.5511V20.5407H70.7892V11.4409H75.0658V34.0872H70.7892V24.3438H59.5511V34.0872H55.2745Z" fill="#16102F"/>
<path d="M77.7482 34.0872L86.3383 11.4409H90.7525L99.3427 34.0872H94.5895L92.6194 28.3481H84.1987L82.2286 34.0872H77.7482ZM85.3877 24.8179H91.396L88.4091 16.0226L85.3877 24.8179Z" fill="#16102F"/>
<path d="M102.023 34.0872V11.4409H109.524C110.949 11.4409 112.162 11.6555 113.157 12.0872C114.153 12.5162 114.958 13.0723 115.567 13.7503C116.179 14.4283 116.624 15.1593 116.907 15.9405C117.19 16.7218 117.331 17.4739 117.331 18.1969C117.331 19.6218 117.013 20.885 116.38 21.9815C115.747 23.0805 114.797 23.9571 113.528 24.6139L118.755 34.0872H113.933L109.35 25.1568H106.124V34.0872H102.017H102.023ZM106.13 21.6266H109.559C110.644 21.6266 111.489 21.3088 112.088 20.6758C112.686 20.0428 112.988 19.2722 112.988 18.3664C112.988 17.3945 112.67 16.6 112.037 15.9882C111.404 15.3764 110.578 15.0719 109.559 15.0719H106.13V21.6239V21.6266Z" fill="#16102F"/>
<path d="M121.644 34.0872L122.73 11.4409H126.702L132.983 22.1377L139.161 11.4409H143.133L144.219 34.0872H140.043L139.296 18.4009L133.865 27.6357H131.863L126.397 18.6392L125.651 34.0872H121.644Z" fill="#16102F"/>
<path d="M159.601 34.6989C157.948 34.6989 156.41 34.3864 154.983 33.7641C153.558 33.1417 152.306 32.281 151.23 31.1845C150.155 30.0881 149.319 28.8195 148.717 27.3815C148.116 25.9434 147.817 24.3994 147.817 22.7468C147.817 21.0943 148.116 19.5503 148.717 18.1122C149.316 16.6741 150.155 15.4082 151.23 14.3091C152.306 13.2127 153.555 12.3573 154.983 11.7455C156.407 11.1337 157.948 10.8292 159.601 10.8292C161.253 10.8292 162.792 11.1337 164.219 11.7455C165.644 12.3573 166.896 13.2127 167.971 14.3091C169.046 15.4082 169.883 16.6741 170.484 18.1122C171.083 19.5503 171.384 21.0943 171.384 22.7468C171.384 24.3994 171.085 25.9434 170.484 27.3815C169.883 28.8195 169.046 30.0855 167.971 31.1845C166.896 32.2836 165.646 33.1417 164.219 33.7641C162.794 34.3864 161.253 34.6989 159.601 34.6989ZM159.601 30.6575C161.094 30.6575 162.384 30.2841 163.472 29.5373C164.558 28.7904 165.403 27.8105 166.001 26.6002C166.599 25.3899 166.901 24.071 166.901 22.6436C166.901 21.2161 166.607 19.8707 166.02 18.671C165.432 17.4713 164.587 16.5099 163.491 15.7843C162.392 15.0613 161.097 14.6984 159.603 14.6984C158.11 14.6984 156.815 15.0613 155.716 15.7843C154.617 16.5099 153.775 17.4713 153.187 18.671C152.599 19.8707 152.306 21.1949 152.306 22.6436C152.306 24.0922 152.599 25.3873 153.187 26.6002C153.775 27.8105 154.62 28.7904 155.716 29.5373C156.812 30.2841 158.11 30.6575 159.603 30.6575H159.601Z" fill="#16102F"/>
<path d="M175.25 34.0872V11.4409H179.561L190.527 27.5351V11.4409H194.703V34.0872H190.492L179.424 17.7891V34.0872H175.248H175.25Z" fill="#16102F"/>
<path d="M199.456 34.0872V11.4409H203.732V34.0872H199.456Z" fill="#16102F"/>
<path d="M207.773 34.0872V30.353L221.117 15.2096H208.385V11.4409H226.243V15.2096L213.173 30.353H226.516V34.0872H207.776H207.773Z" fill="#16102F"/>
<path d="M230.554 34.0872V11.4409H245.222V15.2096H234.833V20.5407H242.473V24.3438H234.833V30.2523H246.003V34.0898H230.557L230.554 34.0872Z" fill="#16102F"/>
</svg>
