<?xml version="1.0" encoding="UTF-8"?>
<svg xmlns="http://www.w3.org/2000/svg" id="Layer_1" data-name="Layer 1" viewBox="0 0 24 24">
  <path d="m0,12.5c0-.276.224-.5.5-.5h11c.276,0,.5.224.5.5s-.224.5-.5.5H.5c-.276,0-.5-.224-.5-.5Zm14.5,5.5H.5c-.276,0-.5.224-.5.5s.224.5.5.5h14c.276,0,.5-.224.5-.5s-.224-.5-.5-.5Zm-3,3H.5c-.276,0-.5.224-.5.5s.224.5.5.5h11c.276,0,.5-.224.5-.5s-.224-.5-.5-.5Zm12.5-.5c0,1.93-1.57,3.5-3.5,3.5s-3.5-1.57-3.5-3.5,1.57-3.5,3.5-3.5,3.5,1.57,3.5,3.5Zm-1,0c0-1.378-1.121-2.5-2.5-2.5s-2.5,1.122-2.5,2.5,1.121,2.5,2.5,2.5,2.5-1.122,2.5-2.5Zm1-17v1c0,.827-.673,1.5-1.5,1.5H1.5c-.827,0-1.5-.673-1.5-1.5v-1C0,1.57,1.57,0,3.5,0h17c1.93,0,3.5,1.57,3.5,3.5Zm-1,0c0-1.378-1.121-2.5-2.5-2.5H3.5c-1.379,0-2.5,1.122-2.5,2.5v1c0,.276.225.5.5.5h21c.275,0,.5-.224.5-.5v-1Zm1,8c0,1.93-1.57,3.5-3.5,3.5s-3.5-1.57-3.5-3.5,1.57-3.5,3.5-3.5,3.5,1.57,3.5,3.5Zm-1,0c0-1.378-1.121-2.5-2.5-2.5s-2.5,1.122-2.5,2.5,1.121,2.5,2.5,2.5,2.5-1.122,2.5-2.5Zm-8.5-2.5H.5c-.276,0-.5.224-.5.5s.224.5.5.5h14c.276,0,.5-.224.5-.5s-.224-.5-.5-.5Z"/>
</svg>
